<svg xmlns="http://www.w3.org/2000/svg" xmlns:xlink="http://www.w3.org/1999/xlink" width="320" height="224" viewBox="0 0 320 224">
    <defs>
        <path id="a" d="M0 .667h320v223H0z"/>
        <filter id="b" width="273.5%" height="274.9%" x="-86.8%" y="-87.5%" filterUnits="objectBoundingBox">
            <feOffset dy="2" in="SourceAlpha" result="shadowOffsetOuter1"/>
            <feGaussianBlur in="shadowOffsetOuter1" result="shadowBlurOuter1" stdDeviation="77"/>
            <feColorMatrix in="shadowBlurOuter1" result="shadowMatrixOuter1" values="0 0 0 0 0.11392277 0 0 0 0 0.160248662 0 0 0 0 0.444378397 0 0 0 0.194110577 0"/>
            <feMerge>
                <feMergeNode in="shadowMatrixOuter1"/>
                <feMergeNode in="SourceGraphic"/>
            </feMerge>
        </filter>
        <linearGradient id="d" x1="65.265%" x2="8.069%" y1="53.843%" y2="54.593%">
            <stop offset="0%" stop-color="#003EA5"/>
            <stop offset="100%" stop-color="#00D2E9"/>
        </linearGradient>
    </defs>
    <g fill="none" fill-rule="evenodd">
        <mask id="c" fill="#fff">
            <use xlink:href="#a"/>
        </mask>
        <use fill="#FFF" xlink:href="#a"/>
        <g filter="url(#b)" mask="url(#c)">
            <path fill="#F9F7EF" d="M176.127 195.079a1.895 1.895 0 0 0-1.893 1.894v3.787c0 1.045.848 1.893 1.893 1.893h15.905v71.514c0 .15.01.297.03.442h12.815c.02-.145.03-.292.03-.442v-71.514h15.905a1.894 1.894 0 0 0 1.893-1.893v-3.787a1.894 1.894 0 0 0-1.893-1.894h-44.685z"/>
            <path fill="#F8F8F8" d="M164.61 107.055a5.472 5.472 0 0 1 5.912-4.99 5.472 5.472 0 0 1 4.99 5.912l-3.24 38.284a5.473 5.473 0 0 1-5.911 4.99 5.473 5.473 0 0 1-4.99-5.912l3.24-38.284z"/>
            <path fill="#FFF" d="M186.483 93.47c-8.846 0-16.028 7.182-16.028 16.029v82.46c0 1.15.121 2.272.352 3.353h42.4a16.06 16.06 0 0 0 .353-3.353v-82.46c0-8.847-7.182-16.03-16.027-16.03h-11.05z"/>
            <path fill="#F7F4F6" d="M206.89 95.989l-5.367 8.317 3.016 2.654-6.142 30.704s.044-44.41.296-44.4c4.143.179 8.197 2.725 8.197 2.725M175.425 95.989l5.367 8.317-3.016 2.654 6.142 30.704s-.044-44.41-.297-44.4c-4.142.179-8.196 2.725-8.196 2.725"/>
            <path fill="#FFD9C4" d="M198.764 103.538h-14.932V80.603h14.932z"/>
            <path fill="#F5C4A4" d="M198.764 90.764v-10.16h-14.932V91.43c1.358.417 2.86.663 4.518.682 4.271.048 7.674-.48 10.414-1.349z"/>
            <path fill="#5BD2CB" d="M198.764 195.067h-14.932V99.471h14.932z"/>
            <path fill="#8C8D93" d="M193.136 132.407l-2.365 5.77-2.282-5.8z"/>
            <path fill="#8C8D93" d="M193.168 132.448h-4.66v-27.502h4.66z"/>
            <path fill="#FFD9C4" d="M198.676 99.389l-7.572 8.996-7.304-9.043z"/>
            <path fill="#1849A0" d="M177.419 40.108s-3.173-.046-4.094 1.115c-2.41 3.038-.366 7.41-.366 7.41l5.427-8.13-.967-.395z"/>
            <path fill="#FFDAC2" d="M207.292 57.284s5.351-4.47 7.76.188c2.523 4.88-2.562 7.243-3.94 6.618-1.379-.625 0 0 0 0s1.323 12.518-1.678 16.982c-2.666 3.968-7.447 9.68-21.084 9.526-13.636-.154-16.652-15.643-16.652-15.643s-1.767-32.51 4.942-33.661c6.71-1.151 28.417.824 28.417.824l2.235 15.166"/>
            <path stroke="#F2C9AC" stroke-linecap="round" stroke-linejoin="round" stroke-width="2" d="M199.828 76.63s-2.51 2.375-6.727 2.018"/>
            <path fill="#0748AF" d="M207.415 58.149s1.608-2.67 3.59-2.69c1.982-.018 3.063 1.112 3.063 1.112s.608-7.41.387-8.328c-.221-.918-2.027-2.573-2.027-2.573s.1-3.3-.746-4.622c-1.875-2.931-4.82-3.472-4.82-3.472s-.302-2.702-1.746-4.271C202.596 30.566 184.721 28 184.721 28s-.129 3.125.435 3.895c.563.77-12.041-2.983-12.041-2.983s-1.64 6.797 2.866 11.675c4.505 4.879 9.78 4.362 9.78 4.362l16.42.397s.485 10.403 5.234 12.803"/>
            <path fill="#251B40" d="M191.538 57.928a1.676 1.676 0 1 0-.683 3.223 1.675 1.675 0 0 0 1.538-2.434.584.584 0 0 1-.855-.79z"/>
            <path fill="#B8ACB8" d="M189.895 58.458c-.2.148-.268.394-.153.55.116.157.372.164.572.016.2-.148.269-.395.153-.551-.115-.156-.371-.163-.572-.015z"/>
            <path fill="#251B40" d="M182.28 57.928a1.675 1.675 0 1 0 .855.789.585.585 0 0 1-.855-.789z"/>
            <path fill="#B8ACB8" d="M180.638 58.458c-.2.148-.27.394-.154.55.116.157.372.164.572.016.2-.148.269-.395.153-.551-.115-.156-.371-.163-.571-.015z"/>
            <path fill="#FFF" d="M133.636 151.498a4.84 4.84 0 0 1-4.777-4.896 4.839 4.839 0 0 1 4.896-4.777l29.583.366a4.839 4.839 0 0 1 4.777 4.896 4.839 4.839 0 0 1-4.896 4.776l-29.583-.365zM205.635 108.248a5.986 5.986 0 0 1 3.866-7.526 5.985 5.985 0 0 1 7.526 3.866l13.018 40.533a5.986 5.986 0 0 1-3.866 7.526 5.985 5.985 0 0 1-7.525-3.867l-13.019-40.532z"/>
            <path fill="#FFD3B9" d="M239.313 108.885s.729-5.374-.19-9.339c0 0-.764-4.238 2.63-1.666 0 0 .616.949.814 3.192 0 0 4.55-5.167 5.998-9.769 0 0 5.091-2.843 8.312 3.283 0 0 2.07 5.813-9.256 19.117l-8.308-4.818z"/>
            <path fill="#FFF" d="M236.43 111.444a5.985 5.985 0 0 1 8.008-2.733 5.986 5.986 0 0 1 2.732 8.007l-16.472 33.54a5.985 5.985 0 0 1-8.007 2.733 5.986 5.986 0 0 1-2.732-8.008l16.472-33.54z"/>
            <path fill="#8C8D93" d="M190.896 103.683a3.031 3.031 0 0 0-3.03 3.03 3.031 3.031 0 0 0 3.03 3.03 3.031 3.031 0 0 0 3.03-3.03 3.031 3.031 0 0 0-3.03-3.03z"/>
            <path fill="#55C4BC" d="M176.506 184.98c0-4.738 3.846-8.584 8.583-8.584 4.738 0 8.584 3.846 8.584 8.584v74.733c0 4.737-3.846 8.584-8.584 8.584-4.737 0-8.583-3.847-8.583-8.584V184.98zM157.547 184.98c0-4.738 3.847-8.584 8.584-8.584s8.583 3.846 8.583 8.584v74.733c0 4.737-3.846 8.584-8.583 8.584s-8.584-3.847-8.584-8.584V184.98z"/>
            <path fill="#EFEFF2" d="M170.952 119.715c0-.488.396-.883.883-.883h7.069c.488 0 .884.395.884.883v1.767a.884.884 0 0 1-.884.884h-7.069a.884.884 0 0 1-.883-.884v-1.767z"/>
            <path stroke="#E9F5F3" stroke-linecap="round" stroke-linejoin="round" stroke-width="2" d="M170.952 119.715c0-.488.396-.883.883-.883h7.069c.488 0 .884.395.884.883v1.767a.884.884 0 0 1-.884.884h-7.069a.884.884 0 0 1-.883-.884v-1.767z"/>
            <path fill="#FFF" d="M19.13 162.292a4.385 4.385 0 0 1 4.383-4.383h248.104a4.385 4.385 0 0 1 4.383 4.383 4.385 4.385 0 0 1-4.383 4.384H23.513a4.385 4.385 0 0 1-4.383-4.384z"/>
            <path fill="#F9F7EF" d="M23.513 157.909a4.386 4.386 0 0 0-4.368 4.026h256.84a4.386 4.386 0 0 0-4.368-4.026H23.513z"/>
            <path fill="#FFF" d="M246.342 280.416h-5.806V166.044h5.806z"/>
            <path fill="#FAF8EF" d="M246.342 178.782h-5.806v-12.738h5.806z"/>
            <path fill="#FFF" d="M54.595 280.416h-5.807V166.044h5.807z"/>
            <path fill="#FAF8EF" d="M54.595 178.782h-5.807v-12.738h5.807z"/>
            <path fill="#FFF" d="M132.047 153.877a3.29 3.29 0 0 0 3.19 4.089h19.551a3.29 3.29 0 0 0 3.19-4.09h-25.931z"/>
            <path fill="#E9E7E9" d="M84.313 118.849c0-1.76 1.43-3.19 3.19-3.19h55.476c1.76 0 3.189 1.43 3.189 3.19v35.926c0 1.761-1.43 3.19-3.19 3.19H87.503a3.19 3.19 0 0 1-3.189-3.19V118.85z"/>
            <path fill="#FFF" d="M83.602 118.849c0-1.76 1.43-3.19 3.19-3.19h55.476c1.76 0 3.189 1.43 3.189 3.19v35.926a3.19 3.19 0 0 1-3.19 3.19H86.792a3.191 3.191 0 0 1-3.19-3.19V118.85z"/>
        </g>
        <path fill="#FFF" d="M363.714 136.15c.184 3.105.276 6.217.276 9.332v78.213H-33.167c0-35.849 8.245-70.167 23.147-100.887.403 6.81 1.5 13.68 3.34 20.525 14.632 54.47 70.62 86.794 125.108 72.232l199.91-53.426.13-.035c17.716-4.76 33.083-13.905 45.246-25.954z" mask="url(#c)"/>
        <path fill="url(#d)" d="M395.102 63.103c.297 45.247-29.78 86.773-75.523 99.062l-.129.034-199.91 53.426C65.05 230.187 9.063 197.863-5.57 143.394a102.055 102.055 0 0 1-3.514-27.18 102.116 102.116 0 0 0 3.515 25.85c14.633 54.47 70.62 86.793 125.108 72.231L319.45 160.87l.129-.034c45.294-12.169 75.229-53.003 75.523-97.732z" mask="url(#c)"/>
    </g>
</svg>
