<svg xmlns="http://www.w3.org/2000/svg" width="790" height="797" viewBox="0 0 790 797">
    <defs>
        <filter id="a" width="173.2%" height="173.7%" x="-36.6%" y="-36.9%" filterUnits="objectBoundingBox">
            <feOffset dy="2" in="SourceAlpha" result="shadowOffsetOuter1"/>
            <feGaussianBlur in="shadowOffsetOuter1" result="shadowBlurOuter1" stdDeviation="77"/>
            <feColorMatrix in="shadowBlurOuter1" result="shadowMatrixOuter1" values="0 0 0 0 0.11392277 0 0 0 0 0.160248662 0 0 0 0 0.444378397 0 0 0 0.194110577 0"/>
            <feMerge>
                <feMergeNode in="shadowMatrixOuter1"/>
                <feMergeNode in="SourceGraphic"/>
            </feMerge>
        </filter>
    </defs>
    <g fill="none" fill-rule="evenodd" filter="url(#a)" transform="matrix(-1 0 0 1 699.792 91)">
        <path fill="#B4D9DC" d="M451.717 597.67a7.192 7.192 0 0 0-7.188-7.188H18.033a7.192 7.192 0 0 0-7.188 7.189 7.192 7.192 0 0 0 7.188 7.188H444.53a7.192 7.192 0 0 0 7.188-7.188zM560.138 597.67a7.192 7.192 0 0 0-7.188-7.188h-40.134a7.191 7.191 0 0 0-7.188 7.189 7.191 7.191 0 0 0 7.188 7.188h40.134a7.192 7.192 0 0 0 7.188-7.188z"/>
        <path fill="#F9F7EF" d="M162.994 589.883h40.733v-6.589h-40.733z"/>
        <path fill="#F9F7EF" d="M236.972 396.403a4.495 4.495 0 0 1 4.492 4.493v8.985a4.495 4.495 0 0 1-4.492 4.492h-37.738v169.67c0 .356-.025.705-.072 1.048h-30.407a7.758 7.758 0 0 1-.07-1.048v-169.67h-37.738a4.494 4.494 0 0 1-4.492-4.492v-8.985a4.494 4.494 0 0 1 4.492-4.493h106.025z"/>
        <path fill="#F8F8F8" d="M264.296 187.56c-.603-7.137-6.888-12.442-14.026-11.837-7.138.604-12.442 6.889-11.838 14.027l7.686 90.831c.603 7.138 6.89 12.443 14.026 11.839 7.138-.605 12.443-6.89 11.839-14.027l-7.687-90.832z"/>
        <path fill="#FFF" d="M212.4 155.33c20.99 0 38.03 17.041 38.03 38.03V389a38.1 38.1 0 0 1-.836 7.957H148.99a38.1 38.1 0 0 1-.835-7.956V193.359c0-20.988 17.04-38.029 38.028-38.029H212.4z"/>
        <path fill="#F7F4F6" d="M163.979 161.306l12.736 19.733-7.158 6.297 14.575 72.848s-.105-105.365-.704-105.34c-9.83.422-19.449 6.462-19.449 6.462M238.637 161.306l-12.735 19.733 7.158 6.297-14.575 72.848s.106-105.365.705-105.34c9.83.422 19.447 6.462 19.447 6.462"/>
        <path fill="#FFD9C4" d="M183.26 179.217h35.43v-54.414h-35.43z"/>
        <path fill="#F5C4A4" d="M183.26 148.911v-24.107h35.429v25.69c-3.222.988-6.784 1.572-10.72 1.616-10.134.114-18.206-1.137-24.71-3.199z"/>
        <path fill="#5BD2CB" d="M183.26 396.376h35.43V169.568h-35.43z"/>
        <path fill="#8C8D93" d="M196.613 247.711l5.613 13.69 5.415-13.76z"/>
        <path fill="#8C8D93" d="M196.539 247.808h11.058v-65.251h-11.058z"/>
        <path fill="#FFD9C4" d="M183.47 169.374l17.965 21.344 17.33-21.455z"/>
        <path fill="#1849A0" d="M233.907 28.727s7.529-.11 9.713 2.644c5.717 7.209.87 17.582.87 17.582l-12.88-19.29 2.297-.936z"/>
        <path fill="#FFDAC2" d="M163.027 69.477s-12.698-10.603-18.413.447c-5.986 11.576 6.078 17.185 9.348 15.702 3.27-1.484 0 0 0 0s-3.14 29.699 3.98 40.29c6.327 9.414 17.672 22.964 50.027 22.6 32.355-.364 39.512-37.113 39.512-37.113s4.192-77.131-11.727-79.863c-15.92-2.731-67.425 1.955-67.425 1.955l-5.302 35.982"/>
        <path stroke="#F2C9AC" stroke-linecap="round" stroke-linejoin="round" stroke-width="2" d="M180.736 115.376s5.956 5.636 15.96 4.788"/>
        <path fill="#0748AF" d="M162.734 71.529s-3.815-6.335-8.519-6.38c-4.702-.044-7.267 2.636-7.267 2.636s-1.444-17.578-.918-19.758c.525-2.178 4.81-6.105 4.81-6.105s-.238-7.829 1.769-10.965c4.45-6.955 11.437-8.237 11.437-8.237s.716-6.411 4.142-10.135C174.167 6.088 216.582 0 216.582 0s.304 7.413-1.033 9.24c-1.337 1.826 28.57-7.076 28.57-7.076s3.893 16.125-6.8 27.699c-10.69 11.575-23.204 10.349-23.204 10.349l-38.965.942s-1.148 24.68-12.416 30.375"/>
        <path fill="#251B40" d="M200.406 71.005a3.976 3.976 0 0 1 5.483 3.565 3.974 3.974 0 1 1-7.513-1.694 1.388 1.388 0 0 0 2.03-1.871z"/>
        <path fill="#B8ACB8" d="M204.303 72.262c.475.351.637.937.363 1.307-.273.372-.88.387-1.356.036-.474-.35-.637-.937-.363-1.307.273-.37.88-.387 1.356-.036z"/>
        <path fill="#251B40" d="M222.372 71.005a3.975 3.975 0 0 1 5.483 3.565 3.973 3.973 0 1 1-7.512-1.694 1.388 1.388 0 0 0 2.028-1.871z"/>
        <path fill="#B8ACB8" d="M226.269 72.262c.474.351.638.937.364 1.307-.274.372-.882.387-1.356.036-.475-.35-.638-.937-.364-1.307.274-.37.881-.387 1.356-.036z"/>
        <path fill="#FFF" d="M337.792 293.004c6.333-.077 11.412-5.283 11.334-11.616-.078-6.333-5.284-11.41-11.616-11.333l-70.193.868c-6.334.077-11.412 5.283-11.334 11.616.078 6.332 5.284 11.41 11.616 11.333l70.193-.868zM166.957 190.392c2.395-7.46-1.715-15.46-9.173-17.856-7.459-2.396-15.46 1.715-17.856 9.174l-30.89 96.165c-2.396 7.459 1.714 15.459 9.173 17.855 7.459 2.396 15.46-1.714 17.855-9.173l30.891-96.165z"/>
        <path fill="#FFD3B9" d="M87.048 191.904s-1.73-12.75.453-22.157c0 0 1.812-10.056-6.243-3.953 0 0-1.46 2.251-1.93 7.573 0 0-10.798-12.26-14.231-23.177 0 0-12.08-6.746-19.722 7.788 0 0-4.912 13.793 21.96 45.357l19.713-11.431z"/>
        <path fill="#FFF" d="M93.888 197.974c-3.454-7.032-11.967-9.938-18.999-6.484-7.032 3.454-9.937 11.967-6.483 18.998l39.083 79.577c3.454 7.03 11.967 9.936 19 6.482 7.03-3.454 9.936-11.966 6.482-18.998l-39.083-79.575z"/>
        <path fill="#8C8D93" d="M201.93 179.562a7.192 7.192 0 0 1 7.188 7.188 7.192 7.192 0 0 1-7.188 7.188 7.192 7.192 0 0 1-7.188-7.188 7.192 7.192 0 0 1 7.188-7.188z"/>
        <path fill="#55C4BC" d="M236.073 372.443c0-11.241-9.126-20.367-20.366-20.367-11.241 0-20.366 9.126-20.366 20.367V549.75c0 11.24 9.125 20.366 20.366 20.366 11.24 0 20.366-9.126 20.366-20.366V372.443zM281.057 372.443c0-11.241-9.127-20.367-20.367-20.367s-20.366 9.126-20.366 20.367V549.75c0 11.24 9.125 20.366 20.366 20.366 11.24 0 20.367-9.126 20.367-20.366V372.443z"/>
        <path fill="#FFF" d="M198.935 586.888v-5.99c0-11.901 9.662-21.564 21.564-21.564 11.901 0 21.564 9.663 21.564 21.564v5.99h-43.128z"/>
        <path fill="#FFF" d="M243.262 583.594c0-1.157-.94-2.097-2.097-2.097h-41.93c-1.158 0-2.097.94-2.097 2.097v4.193c0 1.157.939 2.096 2.096 2.096h41.931c1.156 0 2.097-.939 2.097-2.096v-4.193zM249.201 586.888v-5.99c0-11.901 9.664-21.564 21.565-21.564 11.902 0 21.564 9.663 21.564 21.564v5.99h-43.129z"/>
        <path fill="#FFF" d="M293.528 583.594c0-1.157-.94-2.097-2.097-2.097h-41.93c-1.157 0-2.097.94-2.097 2.097v4.193c0 1.157.94 2.096 2.097 2.096h41.93c1.158 0 2.097-.939 2.097-2.096v-4.193z"/>
        <path fill="#EFEFF2" d="M249.252 217.599c0-1.158-.94-2.097-2.097-2.097h-16.772c-1.157 0-2.097.94-2.097 2.097v4.193c0 1.157.94 2.096 2.097 2.096h16.772c1.156 0 2.097-.939 2.097-2.096v-4.193z"/>
        <path stroke="#E9F5F3" stroke-linecap="round" stroke-linejoin="round" stroke-width="2" d="M249.252 217.599c0-1.158-.94-2.097-2.097-2.097h-16.772c-1.157 0-2.097.94-2.097 2.097v4.193c0 1.157.94 2.096 2.097 2.096h16.772c1.156 0 2.097-.939 2.097-2.096v-4.193z"/>
        <path fill="#FFF" d="M609.483 318.615c0-5.74-4.66-10.4-10.4-10.4H10.4c-5.74 0-10.4 4.66-10.4 10.4s4.66 10.4 10.4 10.4h588.683c5.74 0 10.4-4.66 10.4-10.4z"/>
        <path fill="#F9F7EF" d="M599.083 308.215c5.455 0 9.934 4.208 10.365 9.551H.034c.432-5.343 4.911-9.551 10.366-9.551h588.683z"/>
        <path fill="#FFF" d="M70.37 598.869h13.778V327.517H70.37z"/>
        <path fill="#FAF8EF" d="M70.37 357.738h13.778v-30.221H70.37z"/>
        <path fill="#FFF" d="M525.335 598.869h13.778V327.517h-13.778z"/>
        <path fill="#FAF8EF" d="M525.335 357.738h13.778v-30.221h-13.778z"/>
        <path fill="#FFF" d="M341.563 298.648a7.806 7.806 0 0 1-7.57 9.7h-46.39a7.806 7.806 0 0 1-7.57-9.7h61.53z"/>
        <path fill="#E9E7E9" d="M454.821 215.543a7.571 7.571 0 0 0-7.567-7.568h-131.63a7.572 7.572 0 0 0-7.568 7.568v85.238a7.571 7.571 0 0 0 7.568 7.568h131.63a7.57 7.57 0 0 0 7.567-7.568v-85.238z"/>
        <path fill="#FFF" d="M456.509 215.543a7.572 7.572 0 0 0-7.568-7.568h-131.63a7.571 7.571 0 0 0-7.567 7.568v85.238a7.57 7.57 0 0 0 7.567 7.568h131.63a7.571 7.571 0 0 0 7.568-7.568v-85.238z"/>
    </g>
</svg>
