<svg xmlns="http://www.w3.org/2000/svg" width="258" height="596" viewBox="0 0 258 596">
    <g fill="none" fill-rule="evenodd">
        <path fill="#7787B5" d="M117.5 582h33V317.5h-33zM70.5 582h33V317.5h-33z"/>
        <path fill="#F07D5E" d="M116 581s30.438-14.048 38.5-15c8.062-.952 19.197 7.744 19.5 23h-58s-3.081-3.702 0-8z"/>
        <path fill="#DBD8DF" d="M176 589.875c0-1.035-.84-1.875-1.875-1.875h-58.75c-1.035 0-1.875.84-1.875 1.875v3.75c0 1.035.84 1.875 1.875 1.875h58.75c1.035 0 1.875-.84 1.875-1.875v-3.75z"/>
        <path fill="#D1674A" d="M67 581s30.438-14.048 38.5-15c8.062-.952 19.197 7.744 19.5 23H67s-3.081-3.702 0-8z"/>
        <path fill="#F07D5E" d="M66 581s30.438-14.048 38.5-15c8.062-.952 19.197 7.744 19.5 23H66s-3.081-3.702 0-8z"/>
        <path fill="#BBCDD4" d="M127 589.875c0-1.035-.84-1.875-1.875-1.875h-58.75c-1.035 0-1.875.84-1.875 1.875v3.75c0 1.035.84 1.875 1.875 1.875h58.75c1.035 0 1.875-.84 1.875-1.875v-3.75z"/>
        <path fill="#DAD8DD" d="M126 589.875c0-1.035-.84-1.875-1.875-1.875h-58.75c-1.035 0-1.875.84-1.875 1.875v3.75c0 1.035.84 1.875 1.875 1.875h58.75c1.035 0 1.875-.84 1.875-1.875v-3.75z"/>
        <path fill="#7787B5" d="M110.75 266.5c24.698 0 44.75 23.524 44.75 52.5s-20.052 52.5-44.75 52.5S66 347.976 66 319s20.052-52.5 44.75-52.5z"/>
        <path fill="#855F5F" d="M106.179 0c32.74 0 59.321 24.325 59.321 54.287 0 29.961-26.581 54.286-59.321 54.286-32.74 0-59.32-24.325-59.32-54.286C46.858 24.325 73.438 0 106.178 0z"/>
        <path fill="#855F5F" d="M46.858 151.092H165.5v-97.95H46.858z"/>
        <path fill="#855F5F" d="M165.5 150.262c0-13.654-11.085-24.738-24.738-24.738H71.597c-13.654 0-24.739 11.084-24.739 24.738 0 13.653 11.085 24.738 24.739 24.738h69.165c13.653 0 24.738-11.085 24.738-24.738z"/>
        <path fill="#855F5F" d="M47 166.5h12.5V119H47z"/>
        <path fill="#855F5F" d="M22.93 175h49.85v-19.699H22.93z"/>
        <path fill="#61423F" d="M46.843 155.301c.01.228.015.457.015.687C46.858 166.481 36.36 175 23.43 175 10.5 175 0 166.481 0 155.988c0-.23.005-.459.015-.687h46.828z"/>
        <path fill="#090E3A" d="M155.681 182.583c-4.049-7.66-13.556-10.592-21.216-6.542-7.661 4.049-10.592 13.556-6.543 21.216l38.675 73.163c4.049 7.66 13.556 10.592 21.216 6.543 7.661-4.05 10.592-13.557 6.543-21.217l-38.675-73.163z"/>
        <path fill="#FFDFCB" d="M229.499 210.135c3.802-6.321 1.757-14.54-4.565-18.342-6.321-3.802-14.54-1.757-18.342 4.564l-35.437 58.917c-3.802 6.321-1.756 14.54 4.565 18.342 6.321 3.802 14.54 1.757 18.342-4.564l35.437-58.917z"/>
        <path fill="#FFDFCC" d="M213.45 183.969a5.253 5.253 0 0 0 .389-7.415l-11.375-12.634a5.253 5.253 0 0 0-7.414-.389 5.253 5.253 0 0 0-.389 7.415l11.375 12.634a5.253 5.253 0 0 0 7.414.389z"/>
        <path fill="#EFD1BD" d="M228.857 208.299a5.251 5.251 0 0 0 7.129-2.071l20.559-37.398a5.251 5.251 0 0 0-9.201-5.058l-20.559 37.398a5.251 5.251 0 0 0 2.072 7.129z"/>
        <path fill="#8C88A0" d="M216.935 218.475a6.966 6.966 0 0 0 9.455-2.747l26.605-48.398a6.965 6.965 0 0 0-2.747-9.454 6.965 6.965 0 0 0-9.454 2.747l-26.606 48.397a6.966 6.966 0 0 0 2.747 9.455z"/>
        <path fill="#004972" d="M252.306 164.539a5.447 5.447 0 0 0-2.102-7.407l-25.917-14.462a5.447 5.447 0 0 0-7.408 2.101l-29.185 52.303a5.447 5.447 0 0 0 2.102 7.407l25.917 14.462a5.448 5.448 0 0 0 7.408-2.101l29.185-52.303z"/>
        <path fill="#97E8FF" d="M251.015 164.529a5.171 5.171 0 0 0-1.995-7.032l-24.606-13.73a5.171 5.171 0 0 0-7.032 1.995l-28.144 50.437a5.171 5.171 0 0 0 1.995 7.032l24.606 13.73a5.171 5.171 0 0 0 7.032-1.995l28.144-50.437z"/>
        <path fill="#FFDFCC" d="M245 195.25a5.252 5.252 0 0 0-5.25-5.25h-17a5.252 5.252 0 0 0-5.25 5.25 5.252 5.252 0 0 0 5.25 5.25h17a5.252 5.252 0 0 0 5.25-5.25zM241.5 205.75a5.252 5.252 0 0 0-5.25-5.25h-13.5a5.252 5.252 0 0 0-5.25 5.25 5.252 5.252 0 0 0 5.25 5.25h13.5a5.252 5.252 0 0 0 5.25-5.25z"/>
        <path fill="#101B50" d="M155.181 182.083c-4.049-7.66-13.556-10.592-21.216-6.542-7.661 4.049-10.592 13.556-6.543 21.216l16.209 30.663c4.049 7.66 13.556 10.592 21.216 6.543 7.661-4.05 10.592-13.557 6.543-21.217l-16.209-30.663z"/>
        <path fill="#101B50" d="M119.675 158c19.772 0 35.825 17.947 35.825 40.052V322H66V198.052C66 175.947 82.053 158 101.825 158h17.85z"/>
        <path fill="#090E3A" d="M89.078 196.654c1.57-8.521-4.074-16.714-12.595-18.285-8.521-1.57-16.714 4.073-18.285 12.595L43.2 272.349c-1.57 8.521 4.073 16.715 12.595 18.285 8.52 1.57 16.714-4.073 18.284-12.594l14.999-81.386z"/>
        <path fill="#FFDFCB" d="M127.5 140.25c0-7.865-6.385-14.25-14.25-14.25S99 132.385 99 140.25v20.5c0 7.865 6.385 14.25 14.25 14.25s14.25-6.385 14.25-14.25v-20.5z"/>
        <path fill="#FAD0B5" d="M106.438 127.733a14.256 14.256 0 0 0-.438 3.517v33.5c0 3.83 1.515 7.31 3.977 9.872C103.688 173.141 99 167.489 99 160.75v-20.5c0-5.398 3.008-10.099 7.438-12.517z"/>
        <path fill="#FFDFCB" d="M162.5 57.5c0-26.492-21.508-48-48-48s-48 21.508-48 48v39c0 26.492 21.508 48 48 48s48-21.508 48-48v-39z"/>
        <path fill="#251B40" d="M118.99 71.387a3.318 3.318 0 0 1 4.577 2.976 3.317 3.317 0 1 1-6.27-1.414 1.16 1.16 0 0 0 1.693-1.562z"/>
        <path fill="#B8ACB8" d="M122.243 72.436c.396.293.532.782.304 1.091-.229.31-.736.323-1.132.03-.396-.293-.533-.782-.304-1.091.229-.309.736-.323 1.132-.03z"/>
        <path fill="#251B40" d="M137.326 71.387a3.317 3.317 0 1 1-1.694 1.562 1.159 1.159 0 0 0 1.694-1.562z"/>
        <path fill="#B8ACB8" d="M140.579 72.436c.396.293.532.782.303 1.091-.228.31-.736.323-1.132.03-.396-.293-.532-.782-.304-1.091.229-.309.736-.323 1.133-.03z"/>
        <path fill="#BB9688" d="M123.989 66.149a1 1 0 0 0-1.059-.937l-9.482.58a1 1 0 1 0 .122 1.996l9.482-.58a1 1 0 0 0 .937-1.059z"/>
        <path fill="#F6CEBC" d="M111.459 80.649a1.501 1.501 0 0 0-1.59-1.406l-8.482.518a1.501 1.501 0 0 0 .183 2.996l8.482-.518a1.503 1.503 0 0 0 1.407-1.59zM155.922 81.691a1.5 1.5 0 0 0-1.255-1.711l-4.439-.682a1.5 1.5 0 0 0-.456 2.967l4.439.682a1.501 1.501 0 0 0 1.711-1.256z"/>
        <path fill="#BB9688" d="M148.445 67.291a1 1 0 0 0-.853-1.128l-9.409-1.307a1 1 0 0 0-.275 1.981l9.409 1.307a1 1 0 0 0 1.128-.853z"/>
        <path stroke="#F2C9AC" stroke-linecap="round" stroke-linejoin="round" stroke-width="2" d="M98.244 106.082s1.545 6.667 8.897 10.692"/>
        <path fill="#FAD0B5" d="M113.682 144.493C87.567 144.056 66.5 122.719 66.5 96.5v-39c0-26.492 21.508-48 48-48 3.364 0 6.648.347 9.818 1.007a44.538 44.538 0 0 0-.818-.007c-26.492 0-48 21.508-48 48v39c0 23.127 16.392 42.457 38.182 46.993z"/>
        <path fill="#855F5F" d="M49 75l39.727-.621s22.013-5.149 52.901-35.295c.732-.715 1.029-.776 1.055-.703.047.132-.039.713.186 1.323.47 1.27 8.864 12.047 21.985 12.295 0 0 .953-33.243-14.553-42.09-21.819-12.449-74.383.276-74.383.276L49 75z"/>
        <path fill="#FFF" d="M70 78.5V57.73C70 32.215 89.96 8 113.929 8c6.892 0 13.411 1.713 19.202 4.76a40.935 40.935 0 0 0-12.908-2.08c-23.97 0-43.929 24.215-43.929 49.73V78.5H70z"/>
        <path fill="#FFDEC9" d="M67.25 70C73.183 70 78 75.153 78 81.5S73.183 93 67.25 93 56.5 87.847 56.5 81.5 61.317 70 67.25 70z"/>
        <path fill="#FFFDF4" d="M69 88.5c2.208 0 4 1.792 4 4s-1.792 4-4 4-4-1.792-4-4 1.792-4 4-4z"/>
        <path fill="#015F9D" d="M66 327h89.5v-10.5H66z"/>
        <path fill="#FFF" d="M149 316.75a4.752 4.752 0 0 0-4.75-4.75h-20.5a4.752 4.752 0 0 0-4.75 4.75v9.5a4.752 4.752 0 0 0 4.75 4.75h20.5a4.752 4.752 0 0 0 4.75-4.75v-9.5z"/>
        <path fill="#FEDECA" d="M95.465 359.5c1.675 0 3.035 2.689 3.035 6s-1.36 6-3.035 6-3.035-2.689-3.035-6 1.36-6 3.035-6z"/>
        <path fill="#FEDECA" d="M72.33 277.251c-2.221-7.348-9.784-10.998-16.878-8.146-7.094 2.852-11.051 11.133-8.83 18.481l24.53 81.166c2.222 7.348 9.784 10.999 16.879 8.147 7.094-2.852 11.05-11.133 8.83-18.481L72.33 277.251z"/>
        <path fill="#FEDECA" d="M96.908 366.365c-1.067-1.832-3.283-2.275-4.945-.988l-18.539 14.354c-1.662 1.288-2.145 3.821-1.078 5.654 1.067 1.832 3.282 2.275 4.945.988l18.538-14.354c1.663-1.288 2.146-3.821 1.08-5.654z"/>
        <path fill="#FEDECA" d="M96.419 363.636c-.532-2.121-2.643-3.283-4.71-2.593l-20.927 6.979c-2.068.689-3.316 2.971-2.784 5.092.532 2.121 2.643 3.283 4.71 2.593l20.927-6.979c2.068-.689 3.316-2.971 2.784-5.092z"/>
        <path fill="#FEDECA" d="M81.746 360.684c-.531-2.121-2.642-3.282-4.71-2.593l-8.787 2.931c-2.069.689-3.316 2.971-2.784 5.092.532 2.121 2.642 3.283 4.71 2.593l8.788-2.931c2.068-.689 3.315-2.971 2.783-5.092z"/>
    </g>
</svg>
