<svg xmlns="http://www.w3.org/2000/svg" width="30" height="35" viewBox="0 0 30 35">
    <path fill="#003EA5" fill-opacity=".297" fill-rule="evenodd" d="M19.884 5.682c1.145-1.473 2.014-3.556 1.7-5.682-1.872.13-4.06 1.323-5.338 2.88-1.163 1.409-2.12 3.506-1.746 5.541 2.046.064 4.158-1.158 5.384-2.739zM30 25.679c-.82 1.82-1.213 2.632-2.268 4.244-1.472 2.25-3.547 5.05-6.122 5.07-2.284.025-2.874-1.491-5.975-1.473-3.102.017-3.749 1.502-6.037 1.48-2.573-.023-4.54-2.55-6.011-4.8-4.118-6.284-4.551-13.662-2.012-17.587 1.807-2.786 4.656-4.416 7.333-4.416 2.724 0 4.438 1.498 6.694 1.498 2.188 0 3.52-1.502 6.671-1.502 2.386 0 4.913 1.302 6.71 3.55-5.895 3.239-4.94 11.679 1.017 13.936z"/>
</svg>
