<svg xmlns="http://www.w3.org/2000/svg" width="30" height="34" viewBox="0 0 30 34">
    <path fill="#003EA5" fill-opacity=".297" fill-rule="evenodd" d="M19.09 6.8c-.565 0-1.022-.441-1.022-.987s.457-.985 1.023-.985c.565 0 1.023.44 1.023.985 0 .546-.458.988-1.023.988zm-8.18 0c-.566 0-1.024-.441-1.024-.987s.458-.985 1.023-.985c.566 0 1.023.44 1.023.985 0 .546-.457.988-1.023.988zm8.786-3.954l.38-.555.382-.548.849-1.231a.32.32 0 0 0-.095-.456.343.343 0 0 0-.47.092L19.445 2.02l-.39.564A11.564 11.564 0 0 0 15 1.865c-1.448 0-2.823.258-4.056.72l-.387-.564-.383-.554-.911-1.32a.35.35 0 0 0-.475-.091.323.323 0 0 0-.095.456l.85 1.231.38.548.384.555C7.413 4.148 5.456 6.613 5.456 9.433h19.088c0-2.82-1.957-5.285-4.848-6.587zM5.603 10.75h-.147v14.477c0 1.15.967 2.085 2.16 2.085h1.558a1.839 1.839 0 0 0-.083.548v4.168c0 1.09.917 1.973 2.046 1.973 1.129 0 2.047-.884 2.047-1.973v-4.168c0-.192-.032-.374-.083-.548h3.798c-.051.174-.08.356-.08.548v4.168c0 1.09.915 1.973 2.044 1.973 1.13 0 2.048-.884 2.048-1.973v-4.168a1.84 1.84 0 0 0-.085-.548h1.56c1.193 0 2.158-.935 2.158-2.085V10.75H5.603zm-3.557 0c-1.13 0-2.046.883-2.046 1.973v8.446c0 1.09.915 1.973 2.046 1.973 1.13 0 2.045-.884 2.045-1.973v-8.446c0-1.09-.916-1.973-2.045-1.973zm25.91 0c-1.131 0-2.047.883-2.047 1.973v8.446c0 1.09.916 1.973 2.047 1.973 1.129 0 2.044-.884 2.044-1.973v-8.446c0-1.09-.915-1.973-2.044-1.973z"/>
</svg>
