<svg xmlns="http://www.w3.org/2000/svg" width="54" height="54" viewBox="0 0 54 54">
    <defs>
        <linearGradient id="a" x1="76.041%" x2="11.178%" y1="0%" y2="100%">
            <stop offset="0%" stop-color="#003EA5"/>
            <stop offset="100%" stop-color="#00D2E9"/>
        </linearGradient>
    </defs>
    <path fill="url(#a)" fill-rule="nonzero" d="M137.75 1069.625h13.125a4.757 4.757 0 0 0 4.75-4.75v-13.125a4.757 4.757 0 0 0-4.75-4.75H137.75a4.757 4.757 0 0 0-4.75 4.75v13.114a4.76 4.76 0 0 0 4.75 4.761zm-2.043-17.875c0-1.126.917-2.043 2.043-2.043h13.125c1.127 0 2.044.917 2.044 2.043v13.114a2.046 2.046 0 0 1-2.044 2.044H137.75a2.046 2.046 0 0 1-2.043-2.044v-13.114zm35.606 7.292v7.335c0 1.801-1.47 3.26-3.26 3.26h-7.335c-1.8 0-3.259-1.47-3.259-3.26v-7.335c0-1.79 1.47-3.248 3.26-3.248h7.335c1.8 0 3.259 1.458 3.259 3.248zm-2.707 7.324v-7.335a.552.552 0 0 0-.552-.542h-7.336a.545.545 0 0 0-.552.542v7.335c0 .31.254.553.552.553h7.336c.309 0 .552-.255.552-.553zm18.394-7.324v7.335c0 1.801-1.458 3.26-3.248 3.26h-7.335c-1.801 0-3.26-1.47-3.26-3.26v-7.335c0-1.79 1.47-3.248 3.26-3.248h7.335a3.253 3.253 0 0 1 3.248 3.248zm-2.707 7.324v-7.335a.542.542 0 0 0-.541-.542h-7.335a.545.545 0 0 0-.553.542v7.335c0 .31.254.553.553.553h7.335a.552.552 0 0 0 .541-.553zm-12.98 8.363v7.336c0 1.8-1.47 3.259-3.26 3.259h-7.335c-1.8 0-3.259-1.47-3.259-3.26v-7.335c0-1.79 1.47-3.248 3.26-3.248h7.335c1.8 0 3.259 1.458 3.259 3.248zm-2.707 7.325v-7.336a.552.552 0 0 0-.552-.541h-7.336a.545.545 0 0 0-.552.541v7.336c0 .309.254.552.552.552h7.336c.309 0 .552-.254.552-.552zm18.394-7.325v7.336c0 1.8-1.458 3.259-3.248 3.259h-7.335c-1.801 0-3.26-1.47-3.26-3.26v-7.335c0-1.79 1.47-3.248 3.26-3.248h7.335a3.253 3.253 0 0 1 3.248 3.248zm-2.707 7.325v-7.336a.542.542 0 0 0-.541-.541h-7.335a.545.545 0 0 0-.553.541v7.336c0 .309.254.552.553.552h7.335a.552.552 0 0 0 .541-.552zm-39.251-10.584h7.335c1.801 0 3.26 1.458 3.26 3.248v7.336c0 1.8-1.47 3.259-3.26 3.259h-7.335c-1.801 0-3.26-1.47-3.26-3.26v-7.335c0-1.79 1.47-3.248 3.26-3.248zm7.877 3.26a.531.531 0 0 0-.553-.542h-7.335a.545.545 0 0 0-.553.541v7.336c0 .309.254.552.553.552h7.335c.31 0 .553-.254.553-.552v-7.336zm15.135 12.428c1.8 0 3.259 1.458 3.259 3.259v7.335c0 1.79-1.47 3.248-3.26 3.248h-7.335a3.256 3.256 0 0 1-3.259-3.248v-7.335c0-1.801 1.47-3.26 3.26-3.26h7.335zm.552 10.594v-7.335a.554.554 0 0 0-.552-.553h-7.336a.554.554 0 0 0-.552.553v7.335c0 .298.254.541.552.541h7.336c.309 0 .552-.243.552-.54zm15.146-10.594a3.256 3.256 0 0 1 3.248 3.259v7.335a3.253 3.253 0 0 1-3.248 3.248h-7.335a3.256 3.256 0 0 1-3.26-3.248v-7.335c0-1.801 1.47-3.26 3.26-3.26h7.335zm.541 10.594v-7.335a.545.545 0 0 0-.541-.553h-7.335a.554.554 0 0 0-.553.553v7.335c0 .298.254.541.553.541h7.335a.542.542 0 0 0 .541-.54zM145.042 1101a3.256 3.256 0 0 1-3.26-3.248v-7.335c0-1.801 1.47-3.26 3.26-3.26h7.335c1.801 0 3.26 1.47 3.26 3.26v7.335c0 1.79-1.47 3.248-3.26 3.248h-7.335zm-.553-10.583v7.335c0 .298.254.541.553.541h7.335c.31 0 .553-.243.553-.54v-7.336a.554.554 0 0 0-.553-.553h-7.335a.554.554 0 0 0-.553.553z" transform="translate(-133 -1047)"/>
</svg>
