<svg xmlns="http://www.w3.org/2000/svg" width="22" height="25" viewBox="0 0 22 25">
    <path fill="#2E58E1" fill-rule="evenodd" d="M14.203 4.059C15.02 3.006 15.64 1.519 15.417 0c-1.337.093-2.9.945-3.812 2.056-.832 1.007-1.515 2.505-1.248 3.96 1.462.045 2.97-.828 3.846-1.957zm7.226 14.283c-.585 1.3-.867 1.88-1.62 3.031-1.052 1.607-2.534 3.608-4.373 3.622-1.632.018-2.053-1.065-4.268-1.052-2.216.012-2.678 1.073-4.313 1.057-1.837-.016-3.242-1.821-4.293-3.428-2.941-4.49-3.25-9.76-1.437-12.563 1.29-1.99 3.326-3.154 5.238-3.154 1.945 0 3.17 1.07 4.781 1.07 1.563 0 2.515-1.073 4.766-1.073 1.703 0 3.508.93 4.793 2.536-4.211 2.313-3.53 8.342.726 9.954z"/>
</svg>
