<?xml version="1.0" encoding="utf-8" ?>
<svg xmlns="http://www.w3.org/2000/svg" xmlns:xlink="http://www.w3.org/1999/xlink" width="2565" height="1439">
	<defs>
		<clipPath id="clip_0">
			<rect x="222.75" y="-2814.9844" width="1919.6162" height="6429.7139" clip-rule="evenodd"/>
		</clipPath>
	</defs>
	<g clip-path="url(#clip_0)">
		<path fill="rgb(0,62,165)" stroke="none" transform="matrix(-0.995996 0.0871383 0.0871383 0.995996 2457.92 0.452637)" d="M536 0L1931 0Q1944.73 0 1958.37 0.624842Q1972 1.24968 1985.52 2.49809Q1999.04 3.7465 2012.41 5.61593Q2025.78 7.48536 2038.97 9.972Q2052.17 12.4586 2065.16 15.5574Q2078.15 18.6562 2090.92 22.3608Q2103.68 26.0653 2116.19 30.3682Q2128.7 34.671 2140.93 39.5633Q2153.16 44.4557 2165.09 49.9275Q2177.02 55.3993 2188.61 61.4394Q2200.21 67.4796 2211.45 74.0757Q2222.7 80.6719 2233.57 87.8106Q2244.44 94.9493 2254.91 102.616Q2265.38 110.283 2275.43 118.462Q2285.48 126.641 2295.09 135.315Q2304.7 143.99 2313.86 153.143Q2323.01 162.296 2331.68 171.908Q2340.36 181.52 2348.54 191.571Q2356.72 201.623 2364.38 212.094Q2372.05 222.565 2379.19 233.433Q2386.33 244.302 2392.92 255.546Q2399.52 266.791 2405.56 278.388Q2411.6 289.985 2417.07 301.911Q2422.54 313.837 2427.44 326.067Q2432.33 338.298 2436.63 350.809Q2440.94 363.319 2444.64 376.084Q2448.34 388.849 2451.44 401.842Q2454.54 414.835 2457.03 428.03Q2459.51 441.224 2461.38 454.594Q2463.25 467.963 2464.5 481.48Q2465.75 494.997 2466.38 508.634Q2467 522.271 2467 536L2467 692Q2467 705.729 2466.38 719.366Q2465.75 733.003 2464.5 746.52Q2463.25 760.037 2461.38 773.406Q2459.51 786.776 2457.03 799.97Q2454.54 813.165 2451.44 826.158Q2448.34 839.151 2444.64 851.916Q2440.94 864.681 2436.63 877.191Q2432.33 889.702 2427.44 901.932Q2422.54 914.163 2417.07 926.089Q2411.6 938.015 2405.56 949.612Q2399.52 961.209 2392.92 972.454Q2386.33 983.698 2379.19 994.567Q2372.05 1005.44 2364.38 1015.91Q2356.72 1026.38 2348.54 1036.43Q2340.36 1046.48 2331.68 1056.09Q2323.01 1065.7 2313.86 1074.86Q2304.7 1084.01 2295.09 1092.68Q2285.48 1101.36 2275.43 1109.54Q2265.38 1117.72 2254.91 1125.38Q2244.44 1133.05 2233.57 1140.19Q2222.7 1147.33 2211.45 1153.92Q2200.21 1160.52 2188.61 1166.56Q2177.02 1172.6 2165.09 1178.07Q2153.16 1183.54 2140.93 1188.44Q2128.7 1193.33 2116.19 1197.63Q2103.68 1201.93 2090.92 1205.64Q2078.15 1209.34 2065.16 1212.44Q2052.17 1215.54 2038.97 1218.03Q2025.78 1220.51 2012.41 1222.38Q1999.04 1224.25 1985.52 1225.5Q1972 1226.75 1958.37 1227.38Q1944.73 1228 1931 1228L536 1228Q522.271 1228 508.634 1227.38Q494.997 1226.75 481.48 1225.5Q467.963 1224.25 454.594 1222.38Q441.224 1220.51 428.03 1218.03Q414.835 1215.54 401.842 1212.44Q388.849 1209.34 376.084 1205.64Q363.319 1201.93 350.809 1197.63Q338.298 1193.33 326.067 1188.44Q313.837 1183.54 301.911 1178.07Q289.985 1172.6 278.388 1166.56Q266.79 1160.52 255.546 1153.92Q244.302 1147.33 233.433 1140.19Q222.565 1133.05 212.094 1125.38Q201.623 1117.72 191.571 1109.54Q181.52 1101.36 171.908 1092.68Q162.296 1084.01 153.143 1074.86Q143.99 1065.7 135.315 1056.09Q126.641 1046.48 118.462 1036.43Q110.283 1026.38 102.616 1015.91Q94.9493 1005.44 87.8106 994.567Q80.6719 983.698 74.0757 972.454Q67.4796 961.209 61.4394 949.612Q55.3993 938.015 49.9275 926.089Q44.4557 914.163 39.5633 901.932Q34.671 889.702 30.3682 877.191Q26.0653 864.681 22.3608 851.916Q18.6562 839.151 15.5574 826.158Q12.4586 813.165 9.972 799.97Q7.48536 786.776 5.61593 773.406Q3.7465 760.037 2.49809 746.52Q1.24968 733.003 0.624842 719.366Q0 705.729 0 692L0 536Q0 522.271 0.624842 508.634Q1.24968 494.997 2.49809 481.48Q3.7465 467.963 5.61593 454.594Q7.48536 441.224 9.972 428.03Q12.4586 414.835 15.5574 401.842Q18.6562 388.849 22.3608 376.084Q26.0653 363.319 30.3682 350.809Q34.671 338.298 39.5633 326.067Q44.4557 313.837 49.9275 301.911Q55.3993 289.985 61.4394 278.388Q67.4796 266.79 74.0757 255.546Q80.6719 244.302 87.8106 233.433Q94.9493 222.565 102.616 212.094Q110.283 201.623 118.462 191.571Q126.641 181.52 135.315 171.908Q143.99 162.296 153.143 153.143Q162.296 143.99 171.908 135.315Q181.52 126.641 191.571 118.462Q201.623 110.283 212.094 102.616Q222.565 94.9493 233.433 87.8106Q244.302 80.6719 255.546 74.0757Q266.791 67.4796 278.388 61.4394Q289.985 55.3993 301.911 49.9275Q313.837 44.4557 326.067 39.5633Q338.298 34.671 350.809 30.3682Q363.319 26.0653 376.084 22.3608Q388.849 18.6562 401.842 15.5574Q414.835 12.4586 428.03 9.972Q441.224 7.48536 454.594 5.61593Q467.963 3.7465 481.48 2.49809Q494.997 1.24968 508.634 0.624842Q522.271 0 536 0Z"/>
	</g>

</svg>