<svg xmlns="http://www.w3.org/2000/svg" width="52" height="50" viewBox="0 0 52 50">
    <defs>
        <linearGradient id="a" x1="76.041%" x2="11.178%" y1="3.772%" y2="96.228%">
            <stop offset="0%" stop-color="#E0E070"/>
            <stop offset="100%" stop-color="#00D2E9"/>
        </linearGradient>
    </defs>
    <path fill="url(#a)" fill-rule="nonzero" d="M1385.99 1141.877c0-3.97-3.247-7.212-7.246-7.212h-11.202v-8.035c0-3.4-.997-5.85-2.97-7.286-3.119-2.28-7.404-.982-7.585-.919a1.293 1.293 0 0 0-.912 1.236v9.028c0 7.106-8.285 9.524-8.635 9.63a1.16 1.16 0 0 0-.286.116 3.755 3.755 0 0 0-3.352-2.07h-6.068c-2.058 0-3.734 1.668-3.734 3.717v21.952c0 2.049 1.676 3.717 3.734 3.717h3.511a1.3 1.3 0 0 0 1.305-1.299c0-.718-.594-1.288-1.305-1.288h-3.511a1.134 1.134 0 0 1-1.135-1.13v-21.952c0-.623.51-1.13 1.135-1.13h6.078c.626 0 1.135.507 1.135 1.13v20.706c0 3.97 3.246 7.212 7.246 7.212h22.191c4.922 0 8.052-2.566 8.603-7l2.992-18.69c.01-.064.021-.137.021-.2v-.233h-.01zm-2.6.116l-2.98 18.637c-.393 3.167-2.419 4.783-6.026 4.783H1352.193c-2.557 0-4.647-2.07-4.647-4.625v-19.967c.191.042.393.032.594-.021.435-.116 10.534-3.03 10.534-12.122v-7.983c1.103-.169 2.991-.264 4.36.729 1.262.93 1.91 2.671 1.91 5.206v9.334a1.3 1.3 0 0 0 1.304 1.299h12.507c2.556 0 4.646 2.07 4.646 4.624v.106h-.01z" transform="translate(-1334 -1118)"/>
</svg>
