<svg xmlns="http://www.w3.org/2000/svg" width="50" height="50" viewBox="0 0 50 50">
    <defs>
        <linearGradient id="a" x1="76.041%" x2="11.178%" y1="0%" y2="100%">
            <stop offset="0%" stop-color="#E0E070"/>
            <stop offset="100%" stop-color="#00D2E9"/>
        </linearGradient>
    </defs>
    <path fill="url(#a)" fill-rule="nonzero" d="M523 1142.807c0 11.478 9.337 20.807 20.803 20.807 5.282 0 10.114-1.987 13.79-5.243l13.257 13.26c.246.246.563.369.89.369.328 0 .646-.123.891-.369a1.249 1.249 0 0 0 0-1.771l-13.267-13.26c3.255-3.676 5.241-8.5 5.241-13.793 0-11.479-9.336-20.807-20.802-20.807S523 1131.328 523 1142.807zm39.097 0c0 10.086-8.21 18.298-18.294 18.298s-18.295-8.212-18.295-18.298c0-10.086 8.21-18.298 18.295-18.298 10.084 0 18.294 8.202 18.294 18.298z" transform="translate(-523 -1122)"/>
</svg>
