<?xml version="1.0" encoding="UTF-8"?>
<svg width="53px" height="62px" viewBox="0 0 53 62" version="1.1" xmlns="http://www.w3.org/2000/svg" xmlns:xlink="http://www.w3.org/1999/xlink">
    <!-- Generator: Sketch 53.2 (72643) - https://sketchapp.com -->
    <title>icon-01</title>
    <desc>Created with Sketch.</desc>
    <g id="Page-1" stroke="none" stroke-width="1" fill="none" fill-rule="evenodd">
        <g id="Icons" transform="translate(-55.000000, -42.000000)" fill="#0048AA">
            <g id="icon-01" transform="translate(55.000000, 42.000000)">
                <path d="M49.577,39.8917 C50.482,38.9667 50.473,37.4727 49.554,36.5587 C49.09,36.0967 48.475,35.8647 47.861,35.8647 C47.258,35.8647 46.655,36.0877 46.193,36.5347 L42.385,40.3207 C41.934,40.7687 41.686,41.3657 41.686,41.9997 C41.686,42.6327 41.934,43.2297 42.385,43.6787 C43.318,44.6027 44.836,44.6027 45.768,43.6777 L49.577,39.8917 Z M44.729,34.5217 C45.2,34.0527 45.459,33.4297 45.459,32.7677 C45.459,32.1057 45.2,31.4837 44.729,31.0147 C44.242,30.5317 43.602,30.2897 42.962,30.2897 C42.323,30.2897 41.683,30.5307 41.196,31.0137 L36.836,35.3477 C36.199,35.9737 35.946,36.8937 36.175,37.7517 C36.405,38.6107 37.084,39.2857 37.948,39.5127 C38.812,39.7427 39.74,39.4907 40.369,38.8567 L44.729,34.5217 Z M34.888,33.8167 L39.66,29.0707 C40.404,28.3307 40.624,27.2297 40.222,26.2647 C39.819,25.2987 38.879,24.6747 37.827,24.6747 L37.826,24.6747 L37.825,24.6747 L37.819,24.6747 C37.138,24.6747 36.473,24.9497 35.993,25.4297 L31.219,30.1767 C30.729,30.6627 30.46,31.3087 30.46,31.9967 C30.46,32.6837 30.729,33.3307 31.219,33.8167 C32.231,34.8237 33.877,34.8227 34.888,33.8167 Z M15.247,53.6977 C14.731,53.6957 14.215,53.6547 13.705,53.5757 L13.735,53.6057 C16.726,56.5807 20.382,58.5207 24.028,59.0687 C27.534,59.5937 30.599,58.7577 32.661,56.7077 L42.779,46.6497 C41.976,46.4287 41.236,46.0027 40.644,45.4127 C39.724,44.4987 39.22,43.2757 39.223,41.9977 C37.799,42.1757 36.353,41.7317 35.277,40.7647 C34.202,39.7987 33.611,38.4157 33.643,36.9917 C31.621,37.2257 29.602,36.2137 28.611,34.4117 C27.538,32.4617 27.895,30.0047 29.477,28.4367 L44.757,13.2497 C45.245,12.7637 45.515,12.1177 45.515,11.4297 C45.515,10.7427 45.246,10.0957 44.756,9.6087 C43.745,8.6027 42.098,8.6037 41.087,9.6087 L25.397,25.2097 C24.061,26.5387 22.436,27.4627 20.7,27.8817 C20.165,28.0127 19.618,28.0927 19.067,28.1197 C19.458,28.8877 19.718,29.5407 19.842,30.0667 C19.941,30.4927 19.804,30.9437 19.482,31.2417 C19.163,31.5397 18.704,31.6467 18.284,31.5197 C17.864,31.3917 17.541,31.0487 17.441,30.6237 C17.121,29.2577 15.088,26.1947 13.882,24.5837 C12.147,22.2317 10.569,19.8667 8.732,17.0367 C8.111,16.0777 6.473,13.9117 4.646,14.4937 C4.34,14.5927 4.023,14.7957 3.676,15.1147 C2.564,16.1357 2.454,16.5687 2.468,16.8047 C2.495,17.2897 3.026,18.1127 3.697,19.1537 C4.24,19.9977 4.893,21.0117 5.598,22.2977 C6.07,23.1587 6.428,24.0587 6.743,24.8527 C6.886,25.2107 7.005,25.5117 7.129,25.8047 C7.571,26.8577 8.134,28.2557 8.568,29.7277 C9.372,32.4617 8.952,34.9837 8.545,37.4227 C8.273,39.0607 8.02,40.5887 8.114,42.1537 C8.233,44.1567 8.806,46.2017 9.817,48.2317 C10.175,48.9497 10.582,49.6507 11.026,50.3187 C12.189,51.0687 14.266,51.7977 16.4,51.4377 C18.073,51.1557 19.347,50.2577 20.185,48.7697 C20.36,48.4297 20.72,48.2037 21.117,48.1917 C21.524,48.1757 21.887,48.3877 22.088,48.7297 C22.288,49.0737 22.285,49.4977 22.078,49.8377 C20.925,51.8857 19.085,53.1807 16.764,53.5727 C16.264,53.6567 15.785,53.6817 15.247,53.6977 Z M51.32,34.7957 C52.236,35.7087 52.74,36.9217 52.74,38.2107 C52.74,39.5007 52.235,40.7127 51.319,41.6257 L34.399,58.4427 C33.061,59.7727 31.413,60.7087 29.501,61.2247 C28.383,61.5217 27.23,61.6717 26.072,61.6717 L26.015,61.6717 C25.227,61.6707 24.434,61.6097 23.658,61.4917 C19.498,60.8687 15.355,58.6837 11.993,55.3417 C10.174,53.5357 8.699,51.5087 7.608,49.3177 C6.448,46.9907 5.79,44.6277 5.652,42.2947 C5.543,40.4447 5.833,38.7027 6.113,37.0177 C6.491,34.7437 6.846,32.6017 6.201,30.4137 C5.8,29.0497 5.271,27.7387 4.855,26.7487 C4.714,26.4117 4.58,26.0757 4.452,25.7517 C4.133,24.9497 3.831,24.1917 3.436,23.4697 C2.784,22.2847 2.183,21.3437 1.625,20.4827 C0.684,19.0257 0.068,18.0707 0.005,16.9437 C-0.081,15.4437 0.914,14.3097 2.002,13.3087 C2.62,12.7407 3.239,12.3637 3.892,12.1547 C6.316,11.3777 8.835,12.6687 10.804,15.7007 C12.607,18.4807 14.157,20.8067 15.86,23.1177 C16.002,23.3077 16.744,24.3057 17.554,25.5477 C18.308,25.7307 19.212,25.7127 20.119,25.4927 C21.417,25.1797 22.64,24.4797 23.657,23.4697 L39.347,7.8717 C40.62,6.6067 42.494,6.1087 44.232,6.5727 C45.972,7.0367 47.342,8.3997 47.807,10.1307 C48.273,11.8627 47.77,13.7247 46.495,14.9907 L39.067,22.3757 C41.287,22.9297 42.883,24.9107 42.884,27.2527 C42.884,27.4477 42.873,27.6427 42.85,27.8367 C44.302,27.7987 45.674,28.3917 46.645,29.4607 C47.617,30.5307 48.064,31.9677 47.884,33.3827 C49.146,33.3667 50.4,33.8807 51.32,34.7947 L51.32,34.7957 Z M18.9159,7.4269 L17.5689,1.5179 C17.4619,1.0939 17.5969,0.6359 17.9229,0.3319 C18.2479,0.0289 18.7119,-0.0771 19.1399,0.0579 C19.5649,0.1929 19.8849,0.5469 19.9739,0.9829 L21.3189,6.8829 C21.3919,7.1989 21.3329,7.5369 21.1589,7.8099 C20.9869,8.0829 20.7059,8.2809 20.3889,8.3509 C20.2969,8.3719 20.2069,8.3819 20.1169,8.3819 C19.5389,8.3819 19.0449,7.9889 18.9159,7.4269 Z M23.8788,8.3165 C23.5668,8.2085 23.3168,7.9865 23.1738,7.6915 C23.0308,7.3965 23.0108,7.0645 23.1188,6.7545 L25.1188,1.0325 C25.3418,0.3945 26.0478,0.0575 26.6868,0.2765 C26.9988,0.3845 27.2498,0.6075 27.3928,0.9035 C27.5358,1.1985 27.5548,1.5315 27.4458,1.8405 L25.4458,7.5625 C25.2688,8.0675 24.7918,8.3845 24.2818,8.3845 C24.1478,8.3845 24.0118,8.3625 23.8788,8.3165 Z M15.703,10.2023 L11.421,5.9043 C11.189,5.6713 11.062,5.3623 11.063,5.0343 C11.065,4.7053 11.195,4.3973 11.43,4.1673 C11.912,3.6923 12.693,3.6963 13.17,4.1753 L17.456,8.4803 C17.781,8.7723 17.921,9.2373 17.808,9.6783 C17.695,10.1193 17.35,10.4593 16.907,10.5673 C16.809,10.5913 16.71,10.6023 16.613,10.6023 C16.271,10.6023 15.94,10.4603 15.703,10.2023 Z M26.5917,9.2213 C26.6267,8.8953 26.7867,8.6013 27.0437,8.3953 L31.7867,4.5893 C32.3197,4.1663 33.0937,4.2513 33.5197,4.7763 C33.7257,5.0323 33.8207,5.3523 33.7847,5.6783 C33.7497,6.0053 33.5887,6.2983 33.3307,6.5033 L28.5887,10.3053 C28.3617,10.4883 28.0887,10.5763 27.8177,10.5763 C27.4577,10.5763 27.1007,10.4203 26.8577,10.1213 C26.6517,9.8663 26.5567,9.5473 26.5917,9.2213 Z" id="Combined-Shape"></path>
            </g>
        </g>
    </g>
</svg>