<?xml version="1.0" encoding="UTF-8"?>
<svg width="54px" height="54px" viewBox="0 0 54 54" version="1.1" xmlns="http://www.w3.org/2000/svg" xmlns:xlink="http://www.w3.org/1999/xlink">
    <!-- Generator: Sketch 53.2 (72643) - https://sketchapp.com -->
    <title>icon-05</title>
    <desc>Created with Sketch.</desc>
    <g id="Page-1" stroke="none" stroke-width="1" fill="none" fill-rule="evenodd">
        <g id="Icons" transform="translate(-53.000000, -1669.000000)" fill="#0048AA">
            <g id="icon-05" transform="translate(53.000000, 1669.000000)">
                <path d="M4.75040917,22.6252046 L17.8747954,22.6252046 C20.4930442,22.6252046 22.6252046,20.4930442 22.6252046,17.8747954 L22.6252046,4.75040917 C22.6252046,2.13216039 20.4930442,0 17.8747954,0 L4.75040917,0 C2.13216039,0 0,2.13216039 0,4.75040917 L0,17.863748 C0,20.4930442 2.13216039,22.6252046 4.75040917,22.6252046 Z M2.70662848,4.75040917 C2.70662848,3.62356792 3.62356792,2.70662848 4.75040917,2.70662848 L17.8747954,2.70662848 C19.0016367,2.70662848 19.9185761,3.62356792 19.9185761,4.75040917 L19.9185761,17.863748 C19.9185761,18.9905892 19.0016367,19.9075286 17.8747954,19.9075286 L4.75040917,19.9075286 C3.62356792,19.9075286 2.70662848,18.9905892 2.70662848,17.863748 L2.70662848,4.75040917 Z M38.3126023,12.0417349 L38.3126023,19.3772504 C38.3126023,21.1779869 36.8432897,22.636252 35.0536007,22.636252 L27.7180851,22.636252 C25.9173486,22.636252 24.4590835,21.1669394 24.4590835,19.3772504 L24.4590835,12.0417349 C24.4590835,10.2520458 25.9283961,8.79378069 27.7180851,8.79378069 L35.0536007,8.79378069 C36.8543372,8.79378069 38.3126023,10.2520458 38.3126023,12.0417349 Z M35.6059738,19.3662029 L35.6059738,12.0306874 C35.6059738,11.7324059 35.3518822,11.4893617 35.0536007,11.4893617 L27.7180851,11.4893617 C27.4087561,11.4893617 27.1657119,11.7324059 27.1657119,12.0306874 L27.1657119,19.3662029 C27.1657119,19.6755319 27.4198036,19.9185761 27.7180851,19.9185761 L35.0536007,19.9185761 C35.3629296,19.9185761 35.6059738,19.6644845 35.6059738,19.3662029 Z M54,12.0417349 L54,19.3772504 C54,21.1779869 52.5417349,22.636252 50.7520458,22.636252 L43.4165303,22.636252 C41.6157938,22.636252 40.1575286,21.1669394 40.1575286,19.3772504 L40.1575286,12.0417349 C40.1575286,10.2520458 41.6268412,8.79378069 43.4165303,8.79378069 L50.7520458,8.79378069 C52.5417349,8.79378069 54,10.2520458 54,12.0417349 Z M51.2933715,19.3662029 L51.2933715,12.0306874 C51.2933715,11.7324059 51.0503273,11.4893617 50.7520458,11.4893617 L43.4165303,11.4893617 C43.1072013,11.4893617 42.8641571,11.7324059 42.8641571,12.0306874 L42.8641571,19.3662029 C42.8641571,19.6755319 43.1182488,19.9185761 43.4165303,19.9185761 L50.7520458,19.9185761 C51.0503273,19.9185761 51.2933715,19.6644845 51.2933715,19.3662029 Z M38.3126023,27.7291326 L38.3126023,35.0646481 C38.3126023,36.8653846 36.8432897,38.3236498 35.0536007,38.3236498 L27.7180851,38.3236498 C25.9173486,38.3236498 24.4590835,36.8543372 24.4590835,35.0646481 L24.4590835,27.7291326 C24.4590835,25.9394435 25.9283961,24.4811784 27.7180851,24.4811784 L35.0536007,24.4811784 C36.8543372,24.4811784 38.3126023,25.9394435 38.3126023,27.7291326 Z M35.6059738,35.0536007 L35.6059738,27.7180851 C35.6059738,27.4198036 35.3518822,27.1767594 35.0536007,27.1767594 L27.7180851,27.1767594 C27.4087561,27.1767594 27.1657119,27.4198036 27.1657119,27.7180851 L27.1657119,35.0536007 C27.1657119,35.3629296 27.4198036,35.6059738 27.7180851,35.6059738 L35.0536007,35.6059738 C35.3629296,35.6059738 35.6059738,35.3518822 35.6059738,35.0536007 Z M54,27.7291326 L54,35.0646481 C54,36.8653846 52.5417349,38.3236498 50.7520458,38.3236498 L43.4165303,38.3236498 C41.6157938,38.3236498 40.1575286,36.8543372 40.1575286,35.0646481 L40.1575286,27.7291326 C40.1575286,25.9394435 41.6268412,24.4811784 43.4165303,24.4811784 L50.7520458,24.4811784 C52.5417349,24.4811784 54,25.9394435 54,27.7291326 Z M51.2933715,35.0536007 L51.2933715,27.7180851 C51.2933715,27.4198036 51.0503273,27.1767594 50.7520458,27.1767594 L43.4165303,27.1767594 C43.1072013,27.1767594 42.8641571,27.4198036 42.8641571,27.7180851 L42.8641571,35.0536007 C42.8641571,35.3629296 43.1182488,35.6059738 43.4165303,35.6059738 L50.7520458,35.6059738 C51.0503273,35.6059738 51.2933715,35.3518822 51.2933715,35.0536007 Z M12.0417349,24.4701309 L19.3772504,24.4701309 C21.1779869,24.4701309 22.636252,25.9283961 22.636252,27.7180851 L22.636252,35.0536007 C22.636252,36.8543372 21.1669394,38.3126023 19.3772504,38.3126023 L12.0417349,38.3126023 C10.2409984,38.3126023 8.78273322,36.8432897 8.78273322,35.0536007 L8.78273322,27.7180851 C8.78273322,25.9283961 10.2520458,24.4701309 12.0417349,24.4701309 Z M19.9185761,27.7291326 C19.9185761,27.4198036 19.6755319,27.1767594 19.3662029,27.1878069 L12.0306874,27.1878069 C11.7213584,27.1878069 11.4783142,27.4308511 11.4783142,27.7291326 L11.4783142,35.0646481 C11.4783142,35.3739771 11.7324059,35.6170213 12.0306874,35.6170213 L19.3662029,35.6170213 C19.6755319,35.6170213 19.9185761,35.3629296 19.9185761,35.0646481 L19.9185761,27.7291326 Z M35.0536007,40.1575286 C36.8543372,40.1575286 38.3126023,41.6157938 38.3126023,43.4165303 L38.3126023,50.7520458 C38.3126023,52.5417349 36.8432897,54 35.0536007,54 L27.7180851,54 C25.9173486,54 24.4590835,52.5417349 24.4590835,50.7520458 L24.4590835,43.4165303 C24.4590835,41.6157938 25.9283961,40.1575286 27.7180851,40.1575286 L35.0536007,40.1575286 Z M35.6059738,50.7520458 L35.6059738,43.4165303 C35.6059738,43.1072013 35.3518822,42.8641571 35.0536007,42.8641571 L27.7180851,42.8641571 C27.4087561,42.8641571 27.1657119,43.1182488 27.1657119,43.4165303 L27.1657119,50.7520458 C27.1657119,51.0503273 27.4198036,51.2933715 27.7180851,51.2933715 L35.0536007,51.2933715 C35.3629296,51.2933715 35.6059738,51.0503273 35.6059738,50.7520458 Z M50.7520458,40.1575286 C52.5417349,40.1575286 54,41.6157938 54,43.4165303 L54,50.7520458 C54,52.5417349 52.5417349,54 50.7520458,54 L43.4165303,54 C41.6157938,54 40.1575286,52.5417349 40.1575286,50.7520458 L40.1575286,43.4165303 C40.1575286,41.6157938 41.6268412,40.1575286 43.4165303,40.1575286 L50.7520458,40.1575286 Z M51.2933715,50.7520458 L51.2933715,43.4165303 C51.2933715,43.1072013 51.0503273,42.8641571 50.7520458,42.8641571 L43.4165303,42.8641571 C43.1072013,42.8641571 42.8641571,43.1182488 42.8641571,43.4165303 L42.8641571,50.7520458 C42.8641571,51.0503273 43.1182488,51.2933715 43.4165303,51.2933715 L50.7520458,51.2933715 C51.0503273,51.2933715 51.2933715,51.0503273 51.2933715,50.7520458 Z M12.0417349,54 C10.2409984,54 8.78273322,52.5417349 8.78273322,50.7520458 L8.78273322,43.4165303 C8.78273322,41.6157938 10.2520458,40.1575286 12.0417349,40.1575286 L19.3772504,40.1575286 C21.1779869,40.1575286 22.636252,41.6268412 22.636252,43.4165303 L22.636252,50.7520458 C22.636252,52.5417349 21.1669394,54 19.3772504,54 L12.0417349,54 Z M11.4893617,43.4165303 L11.4893617,50.7520458 C11.4893617,51.0503273 11.7434534,51.2933715 12.0417349,51.2933715 L19.3772504,51.2933715 C19.6865794,51.2933715 19.9296236,51.0503273 19.9296236,50.7520458 L19.9296236,43.4165303 C19.9296236,43.1072013 19.6755319,42.8641571 19.3772504,42.8641571 L12.0417349,42.8641571 C11.7324059,42.8641571 11.4893617,43.1182488 11.4893617,43.4165303 Z" id="menu-2"></path>
            </g>
        </g>
    </g>
</svg>