<?xml version="1.0" encoding="UTF-8"?>
<svg width="50px" height="52px" viewBox="0 0 50 52" version="1.1" xmlns="http://www.w3.org/2000/svg" xmlns:xlink="http://www.w3.org/1999/xlink">
    <!-- Generator: Sketch 53.2 (72643) - https://sketchapp.com -->
    <title>icon-02</title>
    <desc>Created with Sketch.</desc>
    <g id="Page-1" stroke="none" stroke-width="1" fill="none" fill-rule="evenodd">
        <g id="Icons" transform="translate(-53.000000, -417.000000)" fill="#0048AA">
            <g id="icon-02" transform="translate(53.000000, 417.000000)">
                <path d="M46.7925,49.543 C46.9925,49.543 47.1545,49.384 47.1545,49.189 L47.1545,10.95 L2.2235,10.95 L2.2235,49.189 C2.2235,49.384 2.3855,49.543 2.5855,49.543 L46.7925,49.543 Z M2.2235,8.743 L47.1545,8.743 L47.1545,2.561 C47.1545,2.366 46.9925,2.207 46.7925,2.207 L2.5855,2.207 C2.3855,2.207 2.2235,2.366 2.2235,2.561 L2.2235,8.743 Z M46.7925,0 C48.2185,0 49.3775,1.149 49.3775,2.561 L49.3775,49.189 C49.3775,50.602 48.2185,51.75 46.7925,51.75 L2.5855,51.75 C1.1595,51.75 0.0005,50.602 0.0005,49.189 L0.0005,2.561 C0.0005,1.149 1.1595,0 2.5855,0 L46.7925,0 Z M6.171,39.343 L13.736,39.343 L13.736,32.807 L6.171,32.807 L6.171,39.343 Z M5.059,30.6 L14.848,30.6 C15.461,30.6 15.959,31.095 15.959,31.704 L15.959,40.447 C15.959,41.055 15.461,41.55 14.848,41.55 L5.059,41.55 C4.446,41.55 3.947,41.055 3.947,40.447 L3.947,31.704 C3.947,31.095 4.446,30.6 5.059,30.6 Z M13.6372,28.436 L6.2692,28.436 C5.6562,28.436 5.1582,27.941 5.1582,27.332 C5.1582,26.724 5.6562,26.228 6.2692,26.228 L13.6372,26.228 C14.2502,26.228 14.7492,26.724 14.7492,27.332 C14.7492,27.941 14.2502,28.436 13.6372,28.436 Z M35.642,39.343 L43.207,39.343 L43.207,32.807 L35.642,32.807 L35.642,39.343 Z M34.53,30.6 L44.319,30.6 C44.932,30.6 45.431,31.095 45.431,31.704 L45.431,40.447 C45.431,41.055 44.932,41.55 44.319,41.55 L34.53,41.55 C33.917,41.55 33.418,41.055 33.418,40.447 L33.418,31.704 C33.418,31.095 33.917,30.6 34.53,30.6 Z M13.6372,43.7144 C14.2502,43.7144 14.7492,44.2094 14.7492,44.8184 C14.7492,45.4264 14.2502,45.9214 13.6372,45.9214 L6.2692,45.9214 C5.6562,45.9214 5.1582,45.4264 5.1582,44.8184 C5.1582,44.2094 5.6562,43.7144 6.2692,43.7144 L13.6372,43.7144 Z M40.1616,4.3716 C40.7746,4.3716 41.2736,4.8666 41.2736,5.4756 C41.2736,6.0836 40.7746,6.5786 40.1616,6.5786 L38.6876,6.5786 C38.0746,6.5786 37.5766,6.0836 37.5766,5.4756 C37.5766,4.8666 38.0746,4.3716 38.6876,4.3716 L40.1616,4.3716 Z M44.582,4.3716 C45.195,4.3716 45.694,4.8666 45.694,5.4756 C45.694,6.0836 45.195,6.5786 44.582,6.5786 L43.108,6.5786 C42.495,6.5786 41.997,6.0836 41.997,5.4756 C41.997,4.8666 42.495,4.3716 43.108,4.3716 L44.582,4.3716 Z M35.7407,4.3716 C36.3537,4.3716 36.8527,4.8666 36.8527,5.4756 C36.8527,6.0836 36.3537,6.5786 35.7407,6.5786 L34.2667,6.5786 C33.6537,6.5786 33.1557,6.0836 33.1557,5.4756 C33.1557,4.8666 33.6537,4.3716 34.2667,4.3716 L35.7407,4.3716 Z M20.907,21.857 L28.472,21.857 L28.472,15.321 L20.907,15.321 L20.907,21.857 Z M19.794,13.114 L29.583,13.114 C30.196,13.114 30.695,13.609 30.695,14.218 L30.695,22.961 C30.695,23.569 30.196,24.064 29.583,24.064 L19.794,24.064 C19.182,24.064 18.683,23.569 18.683,22.961 L18.683,14.218 C18.683,13.609 19.182,13.114 19.794,13.114 Z M43.1084,43.7144 C43.7214,43.7144 44.2204,44.2094 44.2204,44.8184 C44.2204,45.4264 43.7214,45.9214 43.1084,45.9214 L35.7404,45.9214 C35.1274,45.9214 34.6294,45.4264 34.6294,44.8184 C34.6294,44.2094 35.1274,43.7144 35.7404,43.7144 L43.1084,43.7144 Z M28.373,28.436 L21.005,28.436 C20.392,28.436 19.893,27.941 19.893,27.332 C19.893,26.724 20.392,26.228 21.005,26.228 L28.373,26.228 C28.986,26.228 29.485,26.724 29.485,27.332 C29.485,27.941 28.986,28.436 28.373,28.436 Z M43.1084,28.436 L35.7404,28.436 C35.1274,28.436 34.6294,27.941 34.6294,27.332 C34.6294,26.724 35.1274,26.228 35.7404,26.228 L43.1084,26.228 C43.7214,26.228 44.2204,26.724 44.2204,27.332 C44.2204,27.941 43.7214,28.436 43.1084,28.436 Z M28.373,43.7144 C28.986,43.7144 29.485,44.2094 29.485,44.8184 C29.485,45.4264 28.986,45.9214 28.373,45.9214 L21.005,45.9214 C20.392,45.9214 19.893,45.4264 19.893,44.8184 C19.893,44.2094 20.392,43.7144 21.005,43.7144 L28.373,43.7144 Z M6.171,21.857 L13.736,21.857 L13.736,15.321 L6.171,15.321 L6.171,21.857 Z M5.059,13.114 L14.848,13.114 C15.461,13.114 15.959,13.609 15.959,14.218 L15.959,22.961 C15.959,23.569 15.461,24.064 14.848,24.064 L5.059,24.064 C4.446,24.064 3.947,23.569 3.947,22.961 L3.947,14.218 C3.947,13.609 4.446,13.114 5.059,13.114 Z M20.907,39.343 L28.472,39.343 L28.472,32.807 L20.907,32.807 L20.907,39.343 Z M19.794,30.6 L29.583,30.6 C30.196,30.6 30.695,31.095 30.695,31.704 L30.695,40.447 C30.695,41.055 30.196,41.55 29.583,41.55 L19.794,41.55 C19.182,41.55 18.683,41.055 18.683,40.447 L18.683,31.704 C18.683,31.095 19.182,30.6 19.794,30.6 Z M35.642,21.857 L43.207,21.857 L43.207,15.321 L35.642,15.321 L35.642,21.857 Z M34.53,13.114 L44.319,13.114 C44.932,13.114 45.431,13.609 45.431,14.218 L45.431,22.961 C45.431,23.569 44.932,24.064 44.319,24.064 L34.53,24.064 C33.917,24.064 33.418,23.569 33.418,22.961 L33.418,14.218 C33.418,13.609 33.917,13.114 34.53,13.114 Z" id="Combined-Shape"></path>
            </g>
        </g>
    </g>
</svg>