<?xml version="1.0" encoding="UTF-8"?>
<svg width="63px" height="56px" viewBox="0 0 63 56" version="1.1" xmlns="http://www.w3.org/2000/svg" xmlns:xlink="http://www.w3.org/1999/xlink">
    <!-- Generator: Sketch 53.2 (72643) - https://sketchapp.com -->
    <title>icon-04</title>
    <desc>Created with Sketch.</desc>
    <g id="Page-1" stroke="none" stroke-width="1" fill="none" fill-rule="evenodd">
        <g id="Icons" transform="translate(-58.000000, -1281.000000)" fill="#0048AA" stroke="#0048AA" stroke-width="0.5">
            <g id="icon-04" transform="translate(58.000000, 1282.000000)">
                <path d="M9.00947368,53.8934211 C9.15302848,53.9553436 9.30787316,53.9867965 9.46421053,53.9857895 C9.76075707,53.9856996 10.0458275,53.8711624 10.26,53.6660526 L18.1823684,46.0918421 L33.1034211,46.0918421 C34.5921231,46.0918421 36.0198518,45.5004575 37.0725231,44.4477862 C38.1251944,43.3951149 38.7165789,41.9673862 38.7165789,40.4786842 L38.7165789,32.0305263 C38.7165789,31.3948175 38.2012351,30.8794737 37.5655263,30.8794737 C36.9298175,30.8794737 36.4144737,31.3948175 36.4144737,32.0305263 L36.4144737,40.5 C36.4144737,42.3286439 34.9320649,43.8110526 33.1034211,43.8110526 L17.7134211,43.8110526 C17.4183935,43.8120675 17.1344586,43.9236134 16.9176316,44.1236842 L10.6010526,50.1631579 L10.6010526,44.9763158 C10.5971743,44.3422204 10.0840954,43.8291415 9.45,43.8252632 L5.96131579,43.8252632 C5.0819343,43.8233842 4.23942212,43.4717598 3.61960671,42.8479456 C2.99979129,42.2241314 2.65359224,41.3793754 2.65736842,40.5 L2.65736842,23.9447368 C2.6516991,23.0634766 2.9968357,22.2161608 3.61665242,21.5896794 C4.23646913,20.9631979 5.08004534,20.6090191 5.96131579,20.6052632 L19.5181579,20.6052632 C20.1538667,20.6052632 20.6692105,20.0899193 20.6692105,19.4542105 C20.6692105,18.8185017 20.1538667,18.3031579 19.5181579,18.3031579 L5.96131579,18.3031579 C2.86402943,18.3070785 0.355260676,20.8190269 0.355263158,23.9163158 L0.355263158,40.5 C0.355260676,43.5972888 2.86402943,46.1092373 5.96131579,46.1131579 L8.31315789,46.1131579 L8.31315789,52.8702632 C8.32119268,53.3194245 8.5945862,53.7211456 9.00947368,53.8934211 Z" id="Path"></path>
                <path d="M44.2160526,27.9876316 L52.2023684,35.6257895 C52.5366738,35.9439736 53.0279841,36.0333027 53.4528947,35.8531579 C53.880445,35.6823139 54.1615424,35.2691007 54.1634211,34.8086842 L54.1634211,27.9876316 L56.5365789,27.9876316 C59.6758817,27.9876316 62.2207895,25.4427238 62.2207895,22.3034211 L62.2207895,5.68421053 C62.2012552,2.5587905 59.66206,0.0354652706 56.5365789,0.0355263158 L29.1955263,0.0355263158 C26.0728849,0.0589467836 23.5538595,2.59700764 23.5539474,5.71973684 L23.5539474,22.3389474 C23.5538595,25.4616766 26.0728849,27.9997374 29.1955263,28.0231579 L44.2160526,27.9876316 Z M25.8489474,22.3034211 L25.8489474,5.68421053 C25.8528556,3.83756728 27.3488831,2.34153983 29.1955263,2.33763158 L56.5081579,2.33763158 C58.3575753,2.33762743 59.8579238,3.83479727 59.8618421,5.68421053 L59.8618421,22.3389474 C59.8540331,24.1867394 58.3559623,25.6816362 56.5081579,25.6855263 L52.9555263,25.6855263 C52.3449194,25.7195007 51.8674766,26.2250283 51.8684211,26.8365789 L51.8684211,32.1157895 L45.4736842,26.0123684 C45.2568572,25.8122976 44.9729223,25.7007517 44.6778947,25.6997368 L29.1955263,25.6997368 C27.3449655,25.691912 25.8489308,24.1895247 25.8489474,22.3389474 L25.8489474,22.3034211 Z" id="Shape"></path>
                <path d="M42.8518421,15.3757895 C43.3152142,15.3766878 43.733359,15.0979638 43.9108054,14.6699133 C44.0882518,14.2418628 43.9899456,13.7490463 43.6618421,13.4218421 C43.382357,13.09511 42.9432664,12.9526866 42.5252114,13.0531646 C42.1071564,13.1536427 41.780748,13.4800512 41.6802699,13.8981062 C41.5797918,14.3161612 41.7222152,14.7552517 42.0489474,15.0347368 C42.257734,15.2547991 42.5485058,15.3783128 42.8518421,15.3757895 Z" id="Path"></path>
                <path d="M47.1221053,15.3757895 C47.5854773,15.3766878 48.0036222,15.0979638 48.1810686,14.6699133 C48.358515,14.2418628 48.2602087,13.7490463 47.9321053,13.4218421 C47.6526202,13.09511 47.2135296,12.9526866 46.7954746,13.0531646 C46.3774196,13.1536427 46.0510111,13.4800512 45.9505331,13.8981062 C45.850055,14.3161612 45.9924784,14.7552517 46.3192105,15.0347368 C46.5259322,15.2577563 46.8180744,15.3818521 47.1221053,15.3757895 Z" id="Path"></path>
                <path d="M38.5957895,15.3757895 C39.0591616,15.3766878 39.4773064,15.0979638 39.6547528,14.6699133 C39.8321992,14.2418628 39.7338929,13.7490463 39.4057895,13.4218421 C39.1933583,13.202803 38.9009187,13.0796705 38.5957895,13.0807895 C38.2909865,13.0812906 37.9991514,13.2041686 37.7857895,13.4218421 C37.5674215,13.6333166 37.4441472,13.9243058 37.4441472,14.2282895 C37.4441472,14.5322731 37.5674215,14.8232623 37.7857895,15.0347368 C37.9972584,15.2551795 38.2903287,15.3785775 38.5957895,15.3757895 Z" id="Path"></path>
            </g>
        </g>
    </g>
</svg>