<?xml version="1.0" encoding="UTF-8"?>
<svg width="54px" height="56px" viewBox="0 0 54 56" version="1.1" xmlns="http://www.w3.org/2000/svg" xmlns:xlink="http://www.w3.org/1999/xlink">
    <!-- Generator: Sketch 53.2 (72643) - https://sketchapp.com -->
    <title>icon-03</title>
    <desc>Created with Sketch.</desc>
    <g id="Page-1" stroke="none" stroke-width="1" fill="none" fill-rule="evenodd">
        <g id="Icons" transform="translate(-56.000000, -860.000000)" fill="#0048AA" stroke="#0048AA" stroke-width="0.7">
            <g id="icon-03" transform="translate(57.000000, 861.000000)">
                <path d="M0,53.2173913 C0,53.6496142 0.350385848,54 0.782608696,54 L39.9130435,54 C43.3708263,54 46.173913,51.1969132 46.173913,47.7391304 L46.173913,6.26086957 C46.173913,3.66753248 48.2762281,1.56521739 50.8695652,1.56521739 C51.3017881,1.56521739 51.6521739,1.21483154 51.6521739,0.782608696 C51.6521739,0.350385848 51.3017881,0 50.8695652,0 L11.7391304,0 C8.28134765,0 5.47826087,2.80308678 5.47826087,6.26086957 L5.47826087,47.7391304 C5.47826087,50.3324675 3.37594578,52.4347826 0.782608696,52.4347826 C0.350385848,52.4347826 0,52.7851685 0,53.2173913 Z M7.04347826,47.7391304 L7.04347826,6.26086957 C7.04347826,3.66753248 9.14579335,1.56521739 11.7391304,1.56521739 L46.7295652,1.56521739 C45.3814738,2.75352224 44.6089933,4.46381118 44.6086957,6.26086957 L44.6086957,47.7391304 C44.6086957,50.3324675 42.5063806,52.4347826 39.9130435,52.4347826 L4.9226087,52.4347826 C6.27070013,51.2464778 7.04318063,49.5361888 7.04347826,47.7391304 Z M13.3043478,21.2713043 C13.3086586,18.1697316 15.8219055,15.6564847 18.9234783,15.6521739 L22.5547826,15.6521739 C25.6563553,15.6564847 28.1696023,18.1697316 28.173913,21.2713043 C28.173913,21.7035272 27.8235272,22.053913 27.3913043,22.053913 C26.9590815,22.053913 26.6086957,21.7035272 26.6086957,21.2713043 C26.6043893,19.0341762 24.7919108,17.2216976 22.5547826,17.2173913 L18.9234783,17.2173913 C16.6863501,17.2216976 14.8738715,19.0341762 14.8695652,21.2713043 C14.8695652,21.7035272 14.5191794,22.053913 14.0869565,22.053913 C13.6547337,22.053913 13.3043478,21.7035272 13.3043478,21.2713043 Z M20.7391304,14.1588287 C22.6004695,14.1640484 24.161635,12.7552744 24.3469565,10.9031766 L24.5269565,9.15795918 C24.6334338,8.13643675 24.301403,7.1177162 23.6134318,6.35512775 C22.9254607,5.5925393 21.9461866,5.157731 20.9191304,5.15882875 L20.5591304,5.15882875 C19.5320743,5.157731 18.5528002,5.5925393 17.864829,6.35512775 C17.1768578,7.1177162 16.844827,8.13643675 16.9513043,9.15795918 L17.1313043,10.9110027 C17.3203781,12.7599987 18.8805009,14.1644477 20.7391304,14.1588287 Z M19.0252174,7.40491571 C19.4219453,6.95951922 19.9941204,6.71062304 20.5904348,6.72404614 L20.9504348,6.72404614 C21.5336219,6.72318215 22.0898001,6.96975639 22.4807559,7.40249367 C22.8717116,7.83523094 23.0607412,8.41350505 23.0008696,8.99361136 L22.8208696,10.7388287 C22.7278898,11.8020167 21.8376807,12.6177714 20.7704348,12.6177714 C19.7031889,12.6177714 18.8129798,11.8020167 18.72,10.7388287 L18.54,8.98578527 C18.4706654,8.41390153 18.6469888,7.83942856 19.0252174,7.40491571 L19.0252174,7.40491571 Z M38.3478261,10.9565217 C38.3478261,11.3887446 37.9974402,11.7391304 37.5652174,11.7391304 L31.9432121,11.7391304 C31.5109892,11.7391304 31.1606034,11.3887446 31.1606034,10.9565217 C31.1606034,10.5242989 31.5109892,10.173913 31.9432121,10.173913 L37.5652174,10.173913 C37.9974402,10.173913 38.3478261,10.5242989 38.3478261,10.9565217 Z M38.3478261,18.7826087 C38.3478261,19.2148315 37.9974402,19.5652174 37.5652174,19.5652174 L31.9432121,19.5652174 C31.5109892,19.5652174 31.1606034,19.2148315 31.1606034,18.7826087 C31.1606034,18.3503858 31.5109892,18 31.9432121,18 L37.5652174,18 C37.9974402,18 38.3478261,18.3503858 38.3478261,18.7826087 Z M38.3478261,26.6086957 C38.3478261,27.0409185 37.9974402,27.3913043 37.5652174,27.3913043 L14.0869565,27.3913043 C13.6547337,27.3913043 13.3043478,27.0409185 13.3043478,26.6086957 C13.3043478,26.1764728 13.6547337,25.826087 14.0869565,25.826087 L37.5652174,25.826087 C37.9974402,25.826087 38.3478261,26.1764728 38.3478261,26.6086957 Z M38.3478261,34.4347826 C38.3478261,34.8670055 37.9974402,35.2173913 37.5652174,35.2173913 L14.0869565,35.2173913 C13.6547337,35.2173913 13.3043478,34.8670055 13.3043478,34.4347826 C13.3043478,34.0025598 13.6547337,33.6521739 14.0869565,33.6521739 L37.5652174,33.6521739 C37.9974402,33.6521739 38.3478261,34.0025598 38.3478261,34.4347826 Z M28.173913,42.2608696 C28.173913,42.6930924 27.8235272,43.0434783 27.3913043,43.0434783 L14.0869565,43.0434783 C13.6547337,43.0434783 13.3043478,42.6930924 13.3043478,42.2608696 C13.3043478,41.8286467 13.6547337,41.4782609 14.0869565,41.4782609 L27.3913043,41.4782609 C27.8235272,41.4782609 28.173913,41.8286467 28.173913,42.2608696 Z" id="Shape"></path>
            </g>
        </g>
    </g>
</svg>