<svg xmlns="http://www.w3.org/2000/svg" width="1920" height="378" viewBox="0 0 1920 378">
    <defs>
        <linearGradient id="a" x1="65.265%" x2="8.069%" y1="53.857%" y2="54.61%">
            <stop offset="0%" stop-color="#003EA5"/>
            <stop offset="100%" stop-color="#00D2E9"/>
        </linearGradient>
    </defs>
    <g fill="none" fill-rule="evenodd">
        <path fill="#FFF" d="M233.498-803.137C.328-696.007-128.563-433.344-59.752-177.208L-20.054-29.44c76.733 285.623 370.31 455.12 656.034 378.76L1983.265-10.74l.677-.182c75.607-20.312 143.074-55.816 199.997-102.345v491.439H-199v-654.158c0-242.727 163.114-455.158 397.611-517.827l34.887-9.324z"/>
        <path fill="url(#a)" d="M2586.664 271.048c1.785 238.075-156.396 456.65-397.053 521.302l-.676.181L841.65 1152.592c-285.724 76.36-579.302-93.137-656.035-378.76l-39.698-147.769c-12.874-47.921-18.827-96.071-18.472-143.388.335 44.745 6.321 90.179 18.472 135.41l39.698 147.767c76.733 285.624 370.311 455.12 656.035 378.761l1347.285-360.06.676-.182c237.966-63.93 395.29-278.358 397.053-513.323z" transform="translate(-199 -802.909)"/>
    </g>
</svg>
