<?xml version="1.0" encoding="UTF-8" standalone="no"?>
<svg
   xmlns:dc="http://purl.org/dc/elements/1.1/"
   xmlns:cc="http://creativecommons.org/ns#"
   xmlns:rdf="http://www.w3.org/1999/02/22-rdf-syntax-ns#"
   xmlns:svg="http://www.w3.org/2000/svg"
   xmlns="http://www.w3.org/2000/svg"
   xmlns:sodipodi="http://sodipodi.sourceforge.net/DTD/sodipodi-0.dtd"
   xmlns:inkscape="http://www.inkscape.org/namespaces/inkscape"
   width="1934.5238"
   height="365.26764"
   version="1.1"
   id="svg4529"
   sodipodi:docname="Rectangle Copy1.svg"
   inkscape:version="0.92.1 r15371">
  <metadata
     id="metadata4533">
    <rdf:RDF>
      <cc:Work
         rdf:about="">
        <dc:format>image/svg+xml</dc:format>
        <dc:type
           rdf:resource="http://purl.org/dc/dcmitype/StillImage" />
        <dc:title></dc:title>
      </cc:Work>
    </rdf:RDF>
  </metadata>
  <sodipodi:namedview
     pagecolor="#ffffff"
     bordercolor="#666666"
     borderopacity="1"
     objecttolerance="10"
     gridtolerance="10"
     guidetolerance="10"
     inkscape:pageopacity="0"
     inkscape:pageshadow="2"
     inkscape:window-width="1920"
     inkscape:window-height="1017"
     id="namedview4531"
     showgrid="false"
     inkscape:zoom="0.44288499"
     inkscape:cx="1149.6321"
     inkscape:cy="-497.7455"
     inkscape:window-x="1912"
     inkscape:window-y="-8"
     inkscape:window-maximized="1"
     inkscape:current-layer="svg4529" />
  <defs
     id="defs4523">
    <clipPath
       id="clip_0">
      <rect
         x="222.75"
         y="-2814.9844"
         width="1919.6162"
         height="6429.7139"
         id="rect4520"
         style="clip-rule:evenodd" />
    </clipPath>
  </defs>
  <g
     clip-path="url(#clip_0)"
     id="g4527"
     transform="translate(-217.01848,168.38293)">
    <path
       d="m 641.55918,47.15888 1389.41432,121.5579 q 13.6751,1.1964 27.206,3.0073 13.521,1.81 26.8781,4.2316 13.357,2.4215 26.5106,5.4485 13.1536,3.027 26.0741,6.653 12.9305,3.6269 25.5984,7.8452 12.668,4.2183 25.064,9.0208 12.3861,4.8016 24.4711,10.1773 12.085,5.3757 23.8397,11.3141 11.7547,5.9385 23.1601,12.428 11.4055,6.4894 22.4227,13.5153 11.0273,7.0268 21.6475,14.5759 10.6302,7.5501 20.8346,15.6074 10.2044,8.0574 19.9644,16.6057 9.76,8.5486 19.0571,17.5706 9.297,9.022 18.1127,18.4987 8.8156,9.4776 17.1413,19.3922 8.3158,9.9137 16.1135,20.2427 7.8077,10.3298 15.0791,21.0534 7.2714,10.7245 13.9883,21.8211 6.7268,11.0974 12.8912,22.5441 6.1643,11.4476 11.7482,23.2209 5.5937,11.775 10.5989,23.8519 5.0053,12.0769 9.4142,24.4318 4.4089,12.3549 8.2236,24.9629 3.8046,12.6081 6.9972,25.4437 3.2026,12.8355 5.7755,25.8718 2.5729,13.0363 4.5283,26.2474 1.9554,13.2111 3.2856,26.5703 1.3204,13.3572 2.0179,26.8367 0.6975,13.4784 0.7647,27.0502 0.067,13.5718 -0.4937,27.2091 -0.5708,13.6364 -1.7671,27.3104 l -13.5936,155.3754 q -1.1963,13.674 -3.0021,27.2024 -1.8158,13.5275 -4.2387,26.8815 -2.4228,13.3539 -5.4503,26.5064 -3.0275,13.1536 -6.6473,26.07852 -3.6298,12.9252 -7.8496,25.596 -4.2198,12.6709 -9.0173,25.0623 -4.7975,12.3915 -10.1803,24.4759 -5.373,12.0862 -11.3091,23.8411 -5.9462,11.755 -12.4335,23.1566 -6.4873,11.4016 -13.5137,22.4259 -7.0263,11.0242 -14.5798,21.6491 -7.5434,10.6247 -15.6019,20.8281 -8.0589,10.2073 -16.6105,19.967 -8.5417,9.7606 -17.5646,19.0576 -9.023,9.2969 -18.5057,18.1121 -9.4727,8.816 -19.3842,17.142 -9.9206,8.3152 -20.2477,16.1131 -10.3278,7.8078 -21.0504,15.0793 -10.7225,7.2715 -21.8181,13.9885 -11.0964,6.727 -22.5451,12.8912 -11.4486,6.1642 -23.2278,11.7475 -11.7701,5.5942 -23.85,10.5992 -12.0699,5.0059 -24.4288,9.4144 -12.3589,4.4085 -24.9669,8.2232 -12.6071,3.8047 -25.4417,6.9974 -12.8346,3.1927 -25.8668,5.776 -13.0413,2.5724 -26.2494,4.5281 -13.2081,1.9556 -26.5722,3.2854 -13.3533,1.3207 -26.8327,2.0182 -13.4795,0.6975 -27.0542,0.7644 -13.5748,0.067 -27.2052,-0.4934 -13.6394,-0.571 -27.3144,-1.7674 L 534.55328,1270.2419 q -13.674,-1.1964 -27.2024,-3.0022 -13.5275,-1.8158 -26.8814,-4.2386 -13.354,-2.4229 -26.5065,-5.4503 -13.1535,-3.0276 -26.0786,-6.6473 -12.9252,-3.6299 -25.596,-7.8496 -12.6709,-4.2198 -25.0624,-9.0173 -12.3906,-4.8075 -24.4758,-10.1804 -12.0862,-5.3729 -23.8421,-11.3092 -11.7541,-5.946 -23.1557,-12.4333 -11.4016,-6.4874 -22.4258,-13.5137 -11.0253,-7.0265 -21.6491,-14.5798 -10.6248,-7.5434 -20.8281,-15.6019 -10.2023,-8.0585 -19.963,-16.6102 -9.7616,-8.5417 -19.0606,-17.5649 -9.2979,-9.0231 -18.1151,-18.5059 -8.818,-9.4728 -17.1371,-19.3838 -8.3181,-9.9209 -16.121,-20.2483 -7.8019,-10.3274 -15.0724,-21.0499 -7.2705,-10.7224 -13.9944,-21.8186 -6.7237,-11.0961 -12.8864,-22.54752 -6.163,-11.4475 -11.753,-23.2213 -5.5898,-11.7747 -10.5953,-23.8516 -5.0054,-12.0769 -9.416,-24.432 -4.4107,-12.355 -8.2177,-24.9634 -3.807,-12.6073 -7.0024,-25.4432 -3.1956,-12.8348 -5.7729,-25.8715 -2.5775,-13.0367 -4.5317,-26.2477 -1.9542,-13.211 -3.2811,-26.5699 -1.3269,-13.3578 -2.0238,-26.8372 -0.697,-13.4783 -0.7626,-27.05 -0.066,-13.5717 0.5004,-27.2085 0.566,-13.6369 1.7623,-27.3109 l 13.5936,-155.3754 q 1.1963,-13.674 3.0069,-27.2019 1.8107,-13.528 4.2319,-26.8821 2.4213,-13.3541 5.4482,-26.5066 3.027,-13.1536 6.6534,-26.0781 3.6264,-12.9255 7.845,-25.5965 4.2186,-12.6709 9.0206,-25.062 4.802,-12.3911 10.1778,-24.4761 5.3758,-12.0859 11.3143,-23.8417 5.9385,-11.7547 12.4276,-23.1561 6.4891,-11.4015 13.5155,-22.4257 7.0267,-11.0252 14.5762,-21.6494 7.5495,-10.6242 15.6068,-20.8277 8.0571,-10.2024 16.6055,-19.9634 8.5487,-9.761 17.5709,-19.06 9.0221,-9.2981 18.4989,-18.1158 9.4779,-8.8175 19.3918,-17.1363 9.9139,-8.3188 20.2434,-16.1215 10.3293,-7.8017 21.0528,-15.0721 10.7244,-7.2703 21.8216,-13.9942 11.0971,-6.7236 22.5437,-12.8867 11.4475,-6.163 23.2213,-11.753 11.7747,-5.5898 23.8516,-10.5953 12.0769,-5.0054 24.432,-9.4161 12.355,-4.4106 24.9623,-8.2177 12.6084,-3.807 25.4442,-7.0024 12.8349,-3.1955 25.8716,-5.7729 13.0367,-2.5774 26.2477,-4.5316 13.211,-1.9542 26.5698,-3.2811 13.3579,-1.327 26.8372,-2.0239 13.4784,-0.697 27.0501,-0.7625 13.5716,-0.066 27.2085,0.5004 13.6368,0.5659 27.3109,1.7623 z"
       id="path4525"
       inkscape:connector-curvature="0"
       style="fill:#003ea5;stroke:none;stroke-width:0.99980056" />
  </g>
</svg>
